<svg width="65" height="69" viewBox="0 0 65 69" fill="none" xmlns="http://www.w3.org/2000/svg">
<path d="M41.8604 4.53794C37.7562 4.39474 33.6509 4.23036 29.5504 4.00681C29.8215 3.60481 30.0962 3.20468 30.3674 2.80331C32.5194 6.29899 35.0015 9.5561 37.7752 12.5695C37.2589 12.6634 36.7471 12.7547 36.2308 12.8486C37.2509 10.4684 38.425 8.15499 39.875 6.00663C39.9527 5.88846 40.7817 4.51457 40.9129 4.55351C41.5259 5.15228 41.5428 5.40184 40.9654 5.30344C40.6056 5.30742 40.2502 5.30941 39.8904 5.31404C38.4594 5.32985 37.0259 5.3412 35.5949 5.35701C35.7259 4.72611 35.8602 4.09707 35.9912 3.46616C37.0603 3.79026 38.1337 4.11237 39.2027 4.43647C40.4183 4.80184 39.7329 6.54395 38.552 6.27306C36.4114 5.78096 34.251 5.4003 32.073 5.11497L32.6993 3.3475L37.3543 5.86951C38.3883 6.42861 37.4391 7.81218 36.4754 7.57819C34.3632 7.07277 32.8435 5.48572 30.8483 4.73048C31.2108 4.20752 31.5684 3.68657 31.9308 3.16361C33.8123 5.33172 35.629 7.54521 37.481 9.7395C38.2163 10.6092 37.0019 12.0588 36.0952 11.2658C34.55 9.90905 33.3444 8.34574 32.3645 6.53146L34.3464 5.58498C34.7841 6.44096 35.2619 7.26288 35.8344 8.03379C36.0852 8.37134 36.3485 8.69776 36.6258 9.0169C37.289 9.53199 37.1729 9.67713 36.2762 9.44717C35.654 8.8736 36.656 5.89768 36.8898 5.20279L39.1324 6.01112C38.7052 7.26152 38.2748 8.51133 37.8405 9.75928C37.3133 11.2824 35.2374 10.4244 35.5627 8.93804C35.9818 7.03911 38.4739 2.72083 40.9802 3.92045C41.4823 4.16203 41.8224 4.58931 41.7881 5.17367C41.6726 7.29625 39.5657 10.2428 37.2784 10.2431C35.6083 10.2417 32.7695 8.02507 34.0878 6.20192C34.3307 5.86782 34.761 5.62055 35.1874 5.67712C36.9136 5.9095 37.9776 7.40514 38.3285 9.03002C38.5885 10.2396 36.9359 11.0284 36.1722 10.059C35.5229 9.23219 34.9712 8.36782 34.4996 7.42633C33.8542 6.13448 35.6409 5.05697 36.563 6.09188C37.9056 7.59835 37.999 9.48308 38.0742 11.4188C38.1336 13.0235 35.6603 12.822 35.603 11.234C35.5567 9.96701 35.5547 8.6877 34.6703 7.6952C35.3598 7.24907 36.0442 6.80559 36.7337 6.36011C37.1098 7.11691 37.5382 7.79514 38.0599 8.45835C37.3426 8.80025 36.6209 9.14479 35.9036 9.48733C35.8263 9.12638 35.4948 8.21985 35.0071 8.15336C35.3756 7.97776 35.739 7.80416 36.1074 7.62855C36.5089 7.56222 36.9115 7.52863 37.3167 7.53225C37.793 7.64323 38.135 7.45008 38.3436 6.96497C38.8072 6.53091 39.3099 5.61194 39.3482 4.99283C39.6187 5.41098 39.8855 5.82791 40.156 6.24605C39.9364 6.13856 38.7501 7.59025 38.6556 7.73117C38.2188 8.36132 38.0048 9.0225 37.8393 9.76315L35.5615 8.94191C36.0028 7.69641 36.4441 6.45093 36.8848 5.2048C37.4074 3.7531 39.6474 4.55633 39.1274 6.01313C38.8151 6.89492 38.595 7.76621 38.5678 8.70626C38.5501 9.33723 38.6921 9.99319 38.5412 10.6122C38.3671 11.3415 37.9417 11.9637 37.1332 12.029C36.1422 12.1108 35.4599 11.1709 34.8856 10.4848C33.8753 9.27983 33.0531 7.94013 32.3561 6.53223C31.726 5.25361 33.6832 4.3313 34.3382 5.58639C35.1623 7.1701 36.2159 8.49186 37.4765 9.7415L35.8935 11.0835C34.1466 8.80974 32.2909 6.61423 30.4288 4.43681C29.7991 3.7028 30.5977 2.51695 31.5113 2.87058C33.494 3.63758 35.048 5.25361 37.1269 5.75057C36.833 6.31865 36.5412 6.89183 36.2473 7.45991C34.6966 6.6203 33.1455 5.78133 31.591 4.94114C30.7433 4.48109 31.3167 3.05616 32.2173 3.17367C34.5685 3.48119 36.8946 3.90538 39.2027 4.43647L38.552 6.27306C37.4824 5.95218 36.4095 5.62621 35.3393 5.30534C34.2338 4.9722 34.7052 3.42501 35.7356 3.41449C37.5544 3.39616 39.6681 3.06599 41.462 3.35506C42.2092 3.47444 42.8029 3.75305 42.8362 4.61375C42.8848 5.82871 41.4805 7.07654 40.8573 8.02895C39.7317 9.76288 38.7589 11.5759 37.9302 13.4738C37.6503 14.1155 36.8684 14.2883 36.3851 13.7529C33.5269 10.6041 31.0253 7.19763 28.8529 3.5321C28.5193 2.97305 29.0891 2.28548 29.6699 2.3286C33.7719 2.63754 37.8595 3.01094 41.9443 3.40301C42.6684 3.47331 42.5818 4.55885 41.8617 4.53472L41.8604 4.53794Z" fill="white"/>
<path d="M18 60.5C27.1667 62.5 46.5 61.1 50.5 39.5C54.5 17.9 43.5 9.16667 37.5 7.5" stroke="white"/>
</svg>
