<svg width="28" height="31" viewBox="0 0 28 31" fill="none" xmlns="http://www.w3.org/2000/svg">
<path d="M26.25 11.9936H23.5269L16.7017 0.86358C16.5736 0.651299 16.4054 0.468416 16.2074 0.326084C16.0093 0.183751 15.7854 0.0849516 15.5495 0.0357099C15.3186 -0.0128512 15.0805 -0.0118747 14.8499 0.0385799C14.6194 0.0890344 14.4011 0.187909 14.2084 0.329172C14.1347 0.38257 14.0651 0.441677 14 0.505991C13.9349 0.441677 13.8653 0.38257 13.7916 0.329172C13.5989 0.187951 13.3806 0.0891014 13.15 0.0386483C12.9195 -0.0118048 12.6814 -0.0128046 12.4505 0.0357099C12.2146 0.0849516 11.9907 0.183751 11.7926 0.326084C11.5946 0.468416 11.4264 0.651299 11.2984 0.86358L4.47335 11.9936H1.75C1.28603 11.9941 0.841218 12.1864 0.513143 12.5283C0.185068 12.8701 0.000524938 13.3336 0 13.8171V15.3101C0.000524938 15.7936 0.185068 16.257 0.513143 16.5989C0.841218 16.9408 1.28603 17.1331 1.75 17.1336H1.89939L3.82142 28.4157C3.82206 28.42 3.82288 28.4243 3.82369 28.4285C4.10918 29.9185 5.34036 31 6.75173 31H21.2483C22.6594 31 23.8908 29.9185 24.1766 28.4285C24.1774 28.4243 24.1782 28.42 24.1789 28.4157L26.1009 17.1337H26.25C26.714 17.1331 27.1588 16.9408 27.4869 16.599C27.8149 16.2571 27.9995 15.7936 28 15.3102V13.8171C27.9995 13.3337 27.8149 12.8702 27.4869 12.5283C27.1588 12.1865 26.714 11.9942 26.25 11.9936ZM14.8745 1.32711C14.9386 1.27988 15.0112 1.24671 15.0879 1.22964C15.1647 1.21256 15.244 1.21193 15.321 1.22779C15.4027 1.24555 15.4801 1.28046 15.5484 1.3304C15.6168 1.38034 15.6747 1.44427 15.7186 1.51828L22.1423 11.9936H20.6346L14.6993 2.31485C14.602 2.15801 14.5659 1.96833 14.5985 1.78469C14.6311 1.60104 14.7298 1.43733 14.8745 1.32711ZM14 3.43229L19.25 11.9936H8.75L14 3.43229ZM12.2814 1.51828C12.3253 1.44427 12.3832 1.38034 12.4516 1.3304C12.5199 1.28046 12.5973 1.24555 12.679 1.22779C12.756 1.21193 12.8353 1.21255 12.9121 1.22963C12.9888 1.2467 13.0614 1.27987 13.1255 1.32711C13.2701 1.43737 13.3688 1.60109 13.4014 1.78474C13.4339 1.96838 13.3978 2.15804 13.3005 2.31485L7.3654 11.9936H5.85766L12.2814 1.51828ZM19.378 17.1335L19.1174 20.1367H14.5833V17.1337L19.378 17.1335ZM23.4792 25.5656H19.8176L20.1833 21.3525H24.1971L23.4792 25.5656ZM18.6461 25.5656H14.5833V21.3525H19.0119L18.6461 25.5656ZM14.5833 29.7843V26.7813H18.5408L18.2802 29.7843H14.5833ZM9.71979 29.7843L9.45922 26.7813H13.4167V29.7843H9.71979ZM3.80298 21.3525H7.81667L8.1823 25.5656H4.52083L3.80298 21.3525ZM8.98812 21.3525H13.4167V25.5656H9.35375L8.98812 21.3525ZM13.4167 20.1368H8.88259L8.62202 17.1337H13.4167V20.1368ZM7.45063 17.1337L7.71126 20.1368H3.5959L3.08426 17.1337H7.45063ZM4.96895 28.1965L4.7278 26.7813H8.28782L8.54846 29.7843H6.75179C5.89692 29.7843 5.14803 29.117 4.96895 28.1965ZM21.2483 29.7843H19.4516L19.7122 26.7813H23.2723L23.0311 28.1965C22.852 29.117 22.1031 29.7843 21.2483 29.7843ZM24.4041 20.1368H20.2887L20.5494 17.1337H24.9157L24.4041 20.1368ZM26.8333 15.3102C26.8332 15.4713 26.7716 15.6258 26.6623 15.7398C26.5529 15.8537 26.4047 15.9178 26.25 15.918H1.75C1.59534 15.9178 1.44707 15.8537 1.33771 15.7398C1.22835 15.6258 1.16684 15.4713 1.16667 15.3102V13.8171C1.16684 13.656 1.22835 13.5015 1.33771 13.3875C1.44707 13.2736 1.59534 13.2095 1.75 13.2093H26.25C26.4047 13.2095 26.5529 13.2736 26.6623 13.3875C26.7716 13.5015 26.8332 13.656 26.8333 13.8171V15.3102Z" fill="black"/>
</svg>
