<svg width="54" height="54" viewBox="0 0 54 54" fill="none" xmlns="http://www.w3.org/2000/svg">
<g clip-path="url(#clip0_2003_36)">
<path d="M15.4642 39.0003H20.4196V22.9922H15.4642V39.0003ZM17.9129 14.9771C17.3266 14.9725 16.7522 15.142 16.2625 15.4642C15.7728 15.7864 15.3898 16.2467 15.1623 16.7867C14.9347 17.3268 14.8728 17.922 14.9844 18.4973C15.0959 19.0726 15.376 19.602 15.7889 20.018C16.2018 20.434 16.7291 20.7182 17.3037 20.8342C17.8784 20.9502 18.4747 20.8931 19.0168 20.67C19.5589 20.4468 20.0224 20.0677 20.3486 19.5808C20.6748 19.0939 20.849 18.5208 20.849 17.9348C20.8514 17.1536 20.5437 16.4034 19.9932 15.8488C19.4427 15.2942 18.6945 14.9808 17.9129 14.9771ZM33.1739 22.4938C32.208 22.4809 31.2553 22.7186 30.409 23.1842C29.5627 23.6498 28.852 24.3276 28.3462 25.1502V22.9922H23.588V39.0003H28.3462V30.5904C28.3462 28.34 29.379 27.0057 31.3635 27.0057C33.1972 27.0057 34.0676 28.2936 34.0676 30.5904V39.0003H38.9999V28.8618C38.9999 24.5698 36.5743 22.4938 33.1739 22.4938Z" fill="white"/>
</g>
<defs>
<clipPath id="clip0_2003_36">
<rect width="24" height="24" fill="white" transform="translate(15 15)"/>
</clipPath>
</defs>
</svg>
