<svg width="61" height="61" viewBox="0 0 61 61" fill="none" xmlns="http://www.w3.org/2000/svg">
<g clip-path="url(#clip0_2048_49)">
<path d="M33.3374 35.3952C36.292 33.5694 37.207 29.6941 35.3812 26.7395C33.5554 23.785 29.6801 22.8699 26.7255 24.6957C23.7709 26.5215 22.8559 30.3968 24.6817 33.3514C26.5075 36.306 30.3828 37.221 33.3374 35.3952Z" fill="#FF0037"/>
<path d="M60.0706 30.0353C60.0706 13.422 46.6016 0 30.0353 0C13.469 0 0 13.469 0 30.0353C0 46.6486 13.469 60.0706 30.0353 60.0706C46.6486 60.0706 60.0706 46.6486 60.0706 30.0353ZM48.6196 37.6849C48.4788 40.5476 47.681 43.3635 45.5692 45.4284C43.4573 47.4933 40.6415 48.2911 37.7318 48.4319L22.3387 48.4319C19.476 48.2911 16.6133 47.4933 14.5014 45.4284C12.4365 43.3635 11.6387 40.5476 11.451 37.6849V22.4326C11.5917 19.5699 12.3896 16.7541 14.5014 14.6891C16.6133 12.6242 19.4291 11.8264 22.3387 11.6856H37.7788C40.6415 11.8264 43.5042 12.6242 45.6161 14.6891C47.681 16.7541 48.4788 19.5699 48.6666 22.4326V37.6849H48.6196Z" fill="#FF0037"/>
<path d="M37.591 15.1584C33.8366 15.0646 26.3278 15.0646 22.5265 15.1584C20.5554 15.2054 18.3497 15.7216 16.9418 17.1764C15.4869 18.7251 14.9238 20.6023 14.8769 22.6673C14.783 26.3278 14.8769 37.3564 14.8769 37.3564C14.9238 39.4683 15.4869 41.2985 16.9418 42.8472C18.3497 44.349 20.5554 44.8183 22.5265 44.8652C26.2809 44.9591 33.7897 44.9591 37.591 44.8652C39.5621 44.8183 41.7678 44.3021 43.1757 42.8472C44.6306 41.2985 45.1937 39.4213 45.2407 37.3564V22.7142C45.1937 20.6023 44.6306 18.7721 43.1757 17.2234C41.7678 15.7216 39.5152 15.2054 37.591 15.1584ZM30.0353 39.8437C24.6383 39.8437 20.2738 35.4792 20.2738 30.0822C20.2738 24.6853 24.6383 20.3208 30.0353 20.3208C35.4323 20.3208 39.8437 24.6383 39.8437 30.0353C39.8437 35.4323 35.4323 39.8437 30.0353 39.8437ZM39.8906 22.2918C38.8112 22.2918 37.9196 21.4001 37.9196 20.3208C37.9196 19.2414 38.8112 18.3497 39.8906 18.3497C40.97 18.3497 41.8617 19.2414 41.8617 20.3208C41.8148 21.4001 40.97 22.2918 39.8906 22.2918Z" fill="#FF0037"/>
</g>
<defs>
<clipPath id="clip0_2048_49">
<rect width="60.0706" height="60.0706" fill="white"/>
</clipPath>
</defs>
</svg>
