<svg width="54" height="54" viewBox="0 0 54 54" fill="none" xmlns="http://www.w3.org/2000/svg">
<g clip-path="url(#clip0_2003_38)">
<path d="M40.2696 17.8277C39.9174 16.8898 39.364 16.0402 38.6481 15.3393C37.9546 14.6233 37.1083 14.0735 36.1724 13.7303C35.0841 13.317 33.9324 13.0953 32.7684 13.0745C31.2706 13.0003 30.8002 12.9875 27 12.9875C23.1998 12.9875 22.717 13.0003 21.2192 13.0745C20.0552 13.0953 18.9035 13.317 17.8151 13.7303C16.8808 14.0765 16.0352 14.626 15.3395 15.3393C14.6236 16.0402 14.0702 16.8898 13.718 17.8277C13.3117 18.9137 13.0899 20.0598 13.0619 21.219C13 22.7168 12.9877 23.2001 12.9877 27.0003C12.9877 30.8004 13 31.2831 13.0619 32.7809C13.0899 33.9401 13.3117 35.0862 13.718 36.1723C14.0702 37.1102 14.6236 37.9597 15.3395 38.6606C16.0352 39.374 16.8808 39.9234 17.8151 40.2696C18.9035 40.6829 20.0552 40.9052 21.2192 40.926C22.717 41.0003 23.1874 41.0124 27 41.0124C30.8125 41.0124 31.2706 41.0003 32.7684 40.926C33.9324 40.9052 35.0841 40.6829 36.1724 40.2696C37.1083 39.9264 37.9546 39.3766 38.6481 38.6606C39.364 37.9597 39.9174 37.1102 40.2696 36.1723C40.6759 35.0862 40.8977 33.9401 40.9257 32.7809C40.9876 31.2831 41.0001 30.8004 41.0001 27.0003C41.0001 23.2001 40.9876 22.7168 40.9257 21.219C40.8977 20.0598 40.6759 18.9137 40.2696 17.8277ZM38.4005 32.657C38.3873 33.5485 38.2241 34.4313 37.9177 35.2687C37.6875 35.8749 37.3285 36.4242 36.8656 36.8782C36.4153 37.3428 35.865 37.6982 35.2564 37.9178C34.4248 38.2294 33.5449 38.393 32.6569 38.4007C31.1838 38.475 30.7383 38.4872 27 38.4872C23.2617 38.4872 22.8161 38.475 21.3307 38.4007C20.4427 38.393 19.5628 38.2294 18.7311 37.9178C18.1226 37.6982 17.5723 37.3428 17.122 36.8782C16.659 36.4242 16.3001 35.8749 16.0699 35.2687C15.7635 34.4313 15.6003 33.5485 15.5871 32.657C15.5252 31.184 15.5128 30.7386 15.5128 27.0003C15.5128 23.262 15.5252 22.816 15.5871 21.3429C15.6003 20.4514 15.7635 19.5686 16.0699 18.7313C16.3001 18.1251 16.659 17.5763 17.122 17.1223C17.5723 16.6578 18.1226 16.3017 18.7311 16.0821C19.5628 15.7705 20.4427 15.607 21.3307 15.5992C22.8161 15.5249 23.2493 15.5128 27 15.5128C30.7506 15.5128 31.1838 15.5249 32.6569 15.5992C33.5449 15.607 34.4248 15.7705 35.2564 16.0821C35.865 16.3017 36.4153 16.6578 36.8656 17.1223C37.3285 17.5763 37.6875 18.1251 37.9177 18.7313C38.2241 19.5686 38.3873 20.4514 38.4005 21.3429C38.4624 22.816 38.4748 23.262 38.4748 27.0003C38.4748 30.7386 38.4624 31.184 38.4005 32.657ZM27 19.8083C25.5776 19.8083 24.187 20.2299 23.0043 21.0202C21.8216 21.8104 20.8998 22.9336 20.3555 24.2478C19.8112 25.5619 19.6688 27.008 19.9463 28.4031C20.2238 29.7982 20.9088 31.0794 21.9146 32.0852C22.9204 33.091 24.2019 33.7763 25.597 34.0538C26.9921 34.3313 28.438 34.1889 29.7522 33.6446C31.0663 33.1003 32.1895 32.1781 32.9798 30.9955C33.77 29.8128 34.1919 28.4227 34.1919 27.0003C34.1896 25.0936 33.4311 23.2654 32.0828 21.9171C30.7346 20.5689 28.9067 19.8106 27 19.8083ZM27 31.667C26.077 31.667 25.1748 31.3928 24.4073 30.88C23.6399 30.3672 23.0417 29.6384 22.6885 28.7857C22.3353 27.933 22.243 26.9947 22.423 26.0894C22.6031 25.1842 23.0475 24.3528 23.7002 23.7002C24.3528 23.0475 25.1843 22.6031 26.0896 22.423C26.9948 22.243 27.9332 22.3352 28.7859 22.6884C29.6386 23.0416 30.3674 23.6399 30.8802 24.4073C31.393 25.1748 31.6667 26.0773 31.6667 27.0003C31.665 28.2374 31.1728 29.4231 30.298 30.298C29.4232 31.1728 28.2372 31.6653 27 31.667ZM34.4766 17.8397C34.1436 17.8397 33.8181 17.9388 33.5413 18.1238C33.2644 18.3088 33.0487 18.5717 32.9213 18.8793C32.7939 19.187 32.7605 19.5253 32.8255 19.8518C32.8904 20.1784 33.0508 20.4783 33.2862 20.7137C33.5216 20.9492 33.8215 21.1094 34.1481 21.1743C34.4747 21.2393 34.8131 21.2062 35.1208 21.0788C35.4284 20.9514 35.6913 20.7355 35.8763 20.4587C36.0613 20.1818 36.16 19.8566 36.16 19.5237C36.1597 19.0773 35.9822 18.6492 35.6665 18.3336C35.3509 18.0179 34.923 17.8401 34.4766 17.8397Z" fill="white"/>
</g>
<defs>
<clipPath id="clip0_2003_38">
<rect width="28" height="28" fill="white" transform="translate(13 13)"/>
</clipPath>
</defs>
</svg>
