<svg width="201" height="106" viewBox="0 0 201 106" fill="none" xmlns="http://www.w3.org/2000/svg">
<path d="M21.1861 15.0893L24.6496 23.4342L26.1505 22.8055L22.7447 14.5178L24.361 13.8319L23.7837 12.4601L18.9926 14.4034L19.5698 15.7752L21.1861 15.0893Z" fill="white"/>
<path d="M33.8279 20.0048L33.5393 18.1187L35.502 17.4899L36.3678 19.2046L37.9841 18.6902L33.1352 9.20224L30.8262 9.94527L32.4425 20.4621L33.8279 20.0048ZM34.8093 16.2325L33.3084 16.7469L32.3848 11.4313L34.8093 16.2325Z" fill="white"/>
<path d="M45.9502 14.1176C46.1233 14.8607 45.8924 15.2036 45.3729 15.3179C44.8534 15.4322 44.4493 15.2608 44.2761 14.5177L44.103 13.7747L42.6021 14.1748L42.7753 14.8035C43.1794 16.4039 44.2184 17.1469 45.8347 16.7468C47.3933 16.3467 48.0283 15.2036 47.6242 13.6032C46.8738 10.6882 43.6412 11.0883 43.1216 8.97353C42.9485 8.2305 43.1794 7.88756 43.6989 7.77324C44.2184 7.65893 44.5648 7.8304 44.7379 8.57344L44.8534 8.97353L46.3542 8.57344L46.1811 8.28765C45.777 6.63011 44.7379 5.94423 43.1794 6.28717C41.6208 6.68727 41.0435 7.8304 41.4476 9.43078C42.1403 12.4029 45.4306 12.0028 45.9502 14.1176Z" fill="white"/>
<path d="M53.6853 5.65841L55.4171 14.5177L57.0334 14.2319L55.3593 5.37262L57.0334 5.02968L56.7447 3.60077L51.7227 4.51527L52.0113 6.00134L53.6853 5.65841Z" fill="white"/>
<path d="M69.098 12.3458L68.8671 10.8597L66.0385 11.2598L65.5767 8.23052L67.8857 7.88758L67.6548 6.40151L65.4036 6.74445L64.9995 3.82946L67.828 3.42937L67.6548 1.9433L63.1523 2.57202L64.5954 12.9745L69.098 12.3458Z" fill="white"/>
<path d="M84.5682 11.0312C86.1845 10.9169 87.0504 9.94522 86.9349 8.23053L86.5886 2.85781C86.4731 1.20027 85.5495 0.285765 83.9332 0.400079C82.3169 0.514392 81.4511 1.48605 81.5665 3.20075L81.9129 8.63062C81.9706 10.231 82.9519 11.1455 84.5682 11.0312ZM84.0487 1.82899C84.5682 1.77184 84.9146 2.05762 84.9723 2.80065L85.3186 8.45915C85.3764 9.20219 85.03 9.48797 84.5105 9.54513C83.991 9.60229 83.6446 9.3165 83.5869 8.57347L83.2405 2.91497C83.1828 2.17193 83.4714 1.88615 84.0487 1.82899Z" fill="white"/>
<path d="M94.8434 10.5168L94.7856 6.23006L96.9215 6.17291V4.68684H94.7279L94.6702 1.54323L97.441 1.48607L97.3833 0L92.9962 0.0571566L93.1693 10.574L94.8434 10.5168Z" fill="white"/>
<path d="M112.911 10.9741C113.373 10.9741 113.719 10.9169 114.066 10.8598C114.239 11.317 114.701 11.6028 115.451 11.66H115.682L115.74 10.1739H115.567C115.278 10.1739 115.163 10.1168 115.105 9.94528C115.336 9.54519 115.451 9.08794 115.509 8.51637L115.798 3.0865C115.913 1.42896 115.047 0.400139 113.431 0.342982C111.815 0.285826 110.833 1.14317 110.775 2.85787L110.487 8.28774C110.429 9.88813 111.295 10.8598 112.911 10.9741ZM112.507 2.74356C112.565 2.00052 112.911 1.71474 113.431 1.7719C113.95 1.7719 114.297 2.11484 114.239 2.85787L113.95 8.51637C113.893 9.25941 113.546 9.54519 113.027 9.48803C112.507 9.48803 112.161 9.14509 112.219 8.40206L112.507 2.74356Z" fill="white"/>
<path d="M123.937 11.7742C125.553 11.9456 126.477 11.0883 126.65 9.3736L127.458 1.42884L125.9 1.25737L125.091 9.31645C125.034 10.0595 124.687 10.2881 124.11 10.2309C123.591 10.1738 123.302 9.88801 123.36 9.14498L124.168 1.14306L122.494 0.971588L121.686 8.91635C121.57 10.5739 122.321 11.6027 123.937 11.7742Z" fill="white"/>
<path d="M134.212 10.9169L136.232 11.2027V13.146L137.906 13.3747L137.791 2.74354L135.366 2.4006L132.134 12.5745L133.635 12.8031L134.212 10.9169ZM136.232 4.45824V9.83096L134.674 9.60233L136.232 4.45824Z" fill="white"/>
<path d="M148.355 13.8319L145.642 13.2603L147.431 4.45823L145.815 4.1153L143.737 14.4035L148.008 15.2608L148.355 13.8319Z" fill="white"/>
<path d="M156.34 6.49438L153.748 16.634L155.37 17.0407L157.963 6.90114L156.34 6.49438Z" fill="white"/>
<path d="M164.345 19.5475L167.058 10.974L168.674 11.5456L169.136 10.1167L164.229 8.57343L163.767 10.0023L165.441 10.5167L162.728 19.0902L164.345 19.5475Z" fill="white"/>
<path d="M176.005 20.062L180.623 14.3463L179.122 13.7748L176.12 17.7186L176.755 12.8603L175.139 12.1744L174.446 19.4904L173.118 22.6912L174.677 23.3199L176.005 20.062Z" fill="white"/>
<path d="M171.098 30.3501C152.28 22.2911 127.285 17.89 100.673 17.8329C100.5 17.8329 100.327 17.8329 100.212 17.8329C44.1029 17.8329 0.116316 36.866 0.000865992 61.2718C-0.0568591 67.5019 2.77167 73.5033 8.37101 79.0475C24.1877 94.8227 60.2659 105.054 100.269 105.111C100.443 105.111 100.616 105.111 100.789 105.111C156.84 105.111 200.827 86.0778 201 61.6148C201.058 49.7262 190.436 38.5807 171.098 30.3501ZM100.269 103.282C45.8346 103.168 1.79034 84.3631 1.9058 61.2718C2.02125 38.1806 46.2387 19.5476 100.731 19.6619C155.224 19.7762 199.268 38.5807 199.21 61.6719C198.979 84.7632 154.762 103.396 100.269 103.282Z" fill="#FF0037"/>
<path d="M127.112 70.9313C128.728 70.8741 129.536 70.8169 131.152 70.7598C130.575 63.4438 129.998 54.2987 129.363 43.3246C128.151 55.7848 127.4 65.1013 127.112 70.9313Z" fill="#FF0037"/>
<path d="M127.112 70.9313C128.728 70.8741 129.536 70.8169 131.152 70.7598C130.575 63.4438 129.998 54.2987 129.363 43.3246C128.151 55.7848 127.4 65.1013 127.112 70.9313Z" fill="white"/>
<path d="M100.674 19.6619C46.2388 19.5476 1.96365 38.1806 1.90593 61.2718C1.79048 84.3631 45.8348 103.168 100.327 103.282C154.82 103.396 199.037 84.7632 199.21 61.6719C199.21 38.5807 155.166 19.7762 100.674 19.6619ZM15.7022 64.0154C14.1437 64.0154 12.8737 62.7579 12.8737 61.2147C12.8737 59.6715 14.1437 58.414 15.7022 58.414C17.2608 58.414 18.5308 59.6715 18.5308 61.2147C18.5308 62.7579 17.2608 64.0154 15.7022 64.0154ZM49.2405 89.2786C41.9094 87.2781 38.2728 86.1349 31.1148 83.4486V39.5523C35.5597 37.8948 37.811 37.0946 42.3135 35.7229V76.9899C45.0843 77.5043 46.4697 77.7329 49.2405 78.1902V89.2786ZM79.1422 72.7603C79.1422 77.8472 79.0267 81.3909 78.7958 83.3914C78.5649 85.4491 77.9299 87.4495 76.8331 89.5072C75.7364 91.5648 74.2932 92.9937 72.5038 93.7939C70.7143 94.6513 68.6362 94.8227 66.2117 94.3655C63.5564 93.8511 61.1896 92.7651 59.1693 91.1076C57.1489 89.5072 55.648 87.621 54.609 85.5634C53.6276 83.5057 52.9927 81.5053 52.8195 79.4476C52.6463 77.39 52.5309 73.1604 52.5309 66.7017V32.8079C57.0911 31.6647 59.4002 31.1503 64.0759 30.293V77.1042C64.0759 79.8477 64.1913 81.5624 64.3645 82.3626C64.5954 83.1628 64.9995 83.5629 65.6345 83.6772C66.3849 83.7915 66.8467 83.3914 67.0776 82.5912C67.3085 81.791 67.424 79.7906 67.424 76.5898V29.7214C72.042 28.9212 74.4087 28.5783 79.0844 28.0639V72.7603H79.1422ZM100.327 96.1373C98.4223 84.2488 97.4987 78.2473 95.5938 66.4159V96.0802C90.9181 95.9659 88.5513 95.7944 83.8756 95.3943V27.6066C88.5513 27.2065 90.9181 27.0351 95.5938 26.9208V53.7843C97.6719 43.0389 98.711 37.609 100.847 26.8064C105.234 26.8064 107.485 26.8636 111.872 27.0922C109.159 39.3809 107.832 45.6109 105.118 58.1282C108.062 73.3319 109.563 80.9337 112.507 95.8516C107.601 96.1373 105.176 96.1945 100.327 96.1373ZM132.018 93.7939C131.787 89.1642 131.614 86.878 131.383 82.2483C129.709 82.4198 128.901 82.4769 127.227 82.6484C126.939 87.3924 126.823 89.793 126.534 94.5941C121.686 95.2228 119.261 95.4515 114.412 95.7372C116.375 73.0461 118.395 50.4121 120.416 27.7209C127.169 28.3497 130.575 28.8069 137.271 30.0644C139.407 50.5836 141.601 71.1028 143.91 91.622C139.176 92.6508 136.81 93.0509 132.018 93.7939ZM171.56 73.732C171.56 74.3035 171.502 74.8179 171.445 75.2752C171.445 75.2752 171.098 77.39 171.041 77.6758C170.867 78.3045 170.348 79.9049 170.232 80.1335C166.653 87.9068 156.032 92.365 150.029 88.0211C149.74 87.8496 148.99 87.1638 148.816 86.9923C148.066 86.1349 147.431 85.1061 147.085 83.9058C146.392 81.6196 146.046 78.2473 146.046 73.7891C146.046 72.2459 146.046 71.4457 146.046 69.9025C150.317 69.6167 152.453 69.4452 156.667 69.1023C156.667 71.7315 156.667 73.0461 156.667 75.6181C156.667 77.6186 156.84 78.8761 157.129 79.3905C157.417 79.9049 157.937 80.0764 158.687 79.9049C159.438 79.7334 160.015 79.2762 160.361 78.476C160.708 77.6758 160.939 76.647 160.939 75.2752C160.939 72.2459 160.592 70.3026 159.9 69.4452C159.207 68.5879 157.417 67.159 154.589 64.9299C151.76 62.7008 149.855 60.8717 148.932 59.7286C148.008 58.5855 147.258 56.9851 146.623 54.9846C145.988 52.927 145.699 50.2978 145.699 47.1542C145.699 44.4678 145.872 42.1816 146.161 40.4097C147.316 28.8069 165.268 30.5216 169.655 42.9246C169.655 42.9246 170.117 44.525 170.175 44.8108C170.406 45.8967 170.579 47.0399 170.579 48.2973C170.636 49.0975 170.636 49.9548 170.636 50.8122V52.584C166.48 51.9553 164.402 51.6695 160.188 51.2123C160.188 49.6691 160.188 48.926 160.188 47.3828C160.188 45.6109 160.073 44.4107 159.784 43.8962C159.495 43.3247 159.091 42.9817 158.456 42.8674C157.764 42.696 157.244 42.9817 156.898 43.5533C156.552 44.182 156.378 45.2108 156.378 46.5826C156.378 48.3545 156.609 49.7834 156.956 50.6979C157.36 51.6124 158.399 52.8698 160.188 54.2416C165.21 58.2425 168.327 60.8146 169.655 62.7579C170.925 64.7012 171.56 67.7877 171.56 72.0744C171.618 72.5317 171.56 73.732 171.56 73.732ZM185.356 64.0154C183.798 64.0154 182.528 62.7579 182.528 61.2147C182.528 59.6715 183.798 58.414 185.356 58.414C186.915 58.414 188.185 59.6715 188.185 61.2147C188.185 62.7579 186.915 64.0154 185.356 64.0154Z" fill="#FF0037"/>
<path d="M100.674 19.6619C46.2388 19.5476 1.96365 38.1806 1.90593 61.2718C1.79048 84.3631 45.8348 103.168 100.327 103.282C154.82 103.396 199.037 84.7632 199.21 61.6719C199.21 38.5807 155.166 19.7762 100.674 19.6619ZM15.7022 64.0154C14.1437 64.0154 12.8737 62.7579 12.8737 61.2147C12.8737 59.6715 14.1437 58.414 15.7022 58.414C17.2608 58.414 18.5308 59.6715 18.5308 61.2147C18.5308 62.7579 17.2608 64.0154 15.7022 64.0154ZM49.2405 89.2786C41.9094 87.2781 38.2728 86.1349 31.1148 83.4486V39.5523C35.5597 37.8948 37.811 37.0946 42.3135 35.7229V76.9899C45.0843 77.5043 46.4697 77.7329 49.2405 78.1902V89.2786ZM79.1422 72.7603C79.1422 77.8472 79.0267 81.3909 78.7958 83.3914C78.5649 85.4491 77.9299 87.4495 76.8331 89.5072C75.7364 91.5648 74.2932 92.9937 72.5038 93.7939C70.7143 94.6513 68.6362 94.8227 66.2117 94.3655C63.5564 93.8511 61.1896 92.7651 59.1693 91.1076C57.1489 89.5072 55.648 87.621 54.609 85.5634C53.6276 83.5057 52.9927 81.5053 52.8195 79.4476C52.6463 77.39 52.5309 73.1604 52.5309 66.7017V32.8079C57.0911 31.6647 59.4002 31.1503 64.0759 30.293V77.1042C64.0759 79.8477 64.1913 81.5624 64.3645 82.3626C64.5954 83.1628 64.9995 83.5629 65.6345 83.6772C66.3849 83.7915 66.8467 83.3914 67.0776 82.5912C67.3085 81.791 67.424 79.7906 67.424 76.5898V29.7214C72.042 28.9212 74.4087 28.5783 79.0844 28.0639V72.7603H79.1422ZM100.327 96.1373C98.4223 84.2488 97.4987 78.2473 95.5938 66.4159V96.0802C90.9181 95.9659 88.5513 95.7944 83.8756 95.3943V27.6066C88.5513 27.2065 90.9181 27.0351 95.5938 26.9208V53.7843C97.6719 43.0389 98.711 37.609 100.847 26.8064C105.234 26.8064 107.485 26.8636 111.872 27.0922C109.159 39.3809 107.832 45.6109 105.118 58.1282C108.062 73.3319 109.563 80.9337 112.507 95.8516C107.601 96.1373 105.176 96.1945 100.327 96.1373ZM132.018 93.7939C131.787 89.1642 131.614 86.878 131.383 82.2483C129.709 82.4198 128.901 82.4769 127.227 82.6484C126.939 87.3924 126.823 89.793 126.534 94.5941C121.686 95.2228 119.261 95.4515 114.412 95.7372C116.375 73.0461 118.395 50.4121 120.416 27.7209C127.169 28.3497 130.575 28.8069 137.271 30.0644C139.407 50.5836 141.601 71.1028 143.91 91.622C139.176 92.6508 136.81 93.0509 132.018 93.7939ZM171.56 73.732C171.56 74.3035 171.502 74.8179 171.445 75.2752C171.445 75.2752 171.098 77.39 171.041 77.6758C170.867 78.3045 170.348 79.9049 170.232 80.1335C166.653 87.9068 156.032 92.365 150.029 88.0211C149.74 87.8496 148.99 87.1638 148.816 86.9923C148.066 86.1349 147.431 85.1061 147.085 83.9058C146.392 81.6196 146.046 78.2473 146.046 73.7891C146.046 72.2459 146.046 71.4457 146.046 69.9025C150.317 69.6167 152.453 69.4452 156.667 69.1023C156.667 71.7315 156.667 73.0461 156.667 75.6181C156.667 77.6186 156.84 78.8761 157.129 79.3905C157.417 79.9049 157.937 80.0764 158.687 79.9049C159.438 79.7334 160.015 79.2762 160.361 78.476C160.708 77.6758 160.939 76.647 160.939 75.2752C160.939 72.2459 160.592 70.3026 159.9 69.4452C159.207 68.5879 157.417 67.159 154.589 64.9299C151.76 62.7008 149.855 60.8717 148.932 59.7286C148.008 58.5855 147.258 56.9851 146.623 54.9846C145.988 52.927 145.699 50.2978 145.699 47.1542C145.699 44.4678 145.872 42.1816 146.161 40.4097C147.316 28.8069 165.268 30.5216 169.655 42.9246C169.655 42.9246 170.117 44.525 170.175 44.8108C170.406 45.8967 170.579 47.0399 170.579 48.2973C170.636 49.0975 170.636 49.9548 170.636 50.8122V52.584C166.48 51.9553 164.402 51.6695 160.188 51.2123C160.188 49.6691 160.188 48.926 160.188 47.3828C160.188 45.6109 160.073 44.4107 159.784 43.8962C159.495 43.3247 159.091 42.9817 158.456 42.8674C157.764 42.696 157.244 42.9817 156.898 43.5533C156.552 44.182 156.378 45.2108 156.378 46.5826C156.378 48.3545 156.609 49.7834 156.956 50.6979C157.36 51.6124 158.399 52.8698 160.188 54.2416C165.21 58.2425 168.327 60.8146 169.655 62.7579C170.925 64.7012 171.56 67.7877 171.56 72.0744C171.618 72.5317 171.56 73.732 171.56 73.732ZM185.356 64.0154C183.798 64.0154 182.528 62.7579 182.528 61.2147C182.528 59.6715 183.798 58.414 185.356 58.414C186.915 58.414 188.185 59.6715 188.185 61.2147C188.185 62.7579 186.915 64.0154 185.356 64.0154Z" fill="white"/>
<path d="M15.7021 58.3569C14.1435 58.3569 12.8736 59.6143 12.8736 61.1575C12.8736 62.7008 14.1435 63.9582 15.7021 63.9582C17.2607 63.9582 18.5307 62.7008 18.5307 61.1575C18.5307 59.6143 17.2607 58.3569 15.7021 58.3569Z" fill="#FF0037"/>
<path d="M185.356 58.3569C183.798 58.3569 182.528 59.6143 182.528 61.1575C182.528 62.7008 183.798 63.9582 185.356 63.9582C186.915 63.9582 188.185 62.7008 188.185 61.1575C188.185 59.6143 186.915 58.3569 185.356 58.3569Z" fill="#FF0037"/>
<path d="M42.3712 35.7229C37.8686 37.0947 35.6173 37.8948 31.1725 39.5524V83.4486C38.3304 86.135 41.9671 87.3353 49.2982 89.2786V78.1902C46.5274 77.733 45.142 77.5043 42.3712 76.9899V35.7229Z" fill="#FF0037"/>
<path d="M67.4816 76.5326C67.4816 79.6762 67.3662 81.6767 67.1353 82.534C66.9044 83.3342 66.4426 83.7343 65.6922 83.62C65.0572 83.5629 64.5954 83.1056 64.4222 82.3054C64.1913 81.5052 64.1336 79.7905 64.1336 77.047V30.2929C59.5156 31.1503 57.2066 31.6647 52.5886 32.8078V66.7588C52.5886 73.2175 52.704 77.5043 52.8772 79.5047C53.0504 81.5624 53.6276 83.5629 54.6667 85.6205C55.648 87.6781 57.1488 89.5071 59.227 91.1647C61.2473 92.7651 63.6141 93.9082 66.2694 94.4226C68.6939 94.8799 70.772 94.7084 72.5615 93.851C74.3509 92.9937 75.7941 91.5648 76.8908 89.5643C77.9876 87.5067 78.6226 85.5062 78.8535 83.4485C79.0844 81.3909 79.1998 77.8472 79.1998 72.8174V28.0638C74.4664 28.5783 72.1574 28.9212 67.4816 29.7214V76.5326Z" fill="#FF0037"/>
<path d="M111.815 27.0921C107.427 26.8635 105.176 26.8063 100.789 26.8063C98.711 37.6089 97.6719 42.9816 95.5361 53.7842V26.9206C90.8603 27.035 88.4936 27.2064 83.8179 27.6065V95.3942C88.4936 95.7943 90.8603 95.9658 95.5361 96.0801V66.4158C97.441 78.3044 98.3646 84.2487 100.27 96.1372C105.118 96.1372 107.543 96.0801 112.392 95.8515C109.448 80.9336 107.947 73.3318 105.003 58.1281C107.774 45.6108 109.101 39.3808 111.815 27.0921Z" fill="#FF0037"/>
<path d="M120.416 27.7209C118.395 50.412 116.432 73.046 114.412 95.7372C119.261 95.3942 121.685 95.1656 126.534 94.594C126.823 89.7929 126.938 87.3923 127.227 82.6483C128.901 82.534 129.709 82.4197 131.383 82.2482C131.614 86.8779 131.787 89.2213 132.018 93.7938C136.752 93.0508 139.176 92.5936 143.852 91.6219C141.543 71.1027 139.349 50.5835 137.214 30.0643C130.575 28.8068 127.169 28.3496 120.416 27.7209ZM127.112 70.9312C127.4 65.1012 128.151 55.7847 129.363 43.3818C129.94 54.3558 130.575 63.4437 131.152 70.8169C129.478 70.8169 128.67 70.8741 127.112 70.9312Z" fill="#FF0037"/>
<path d="M160.246 54.3558C158.514 52.9841 157.417 51.7266 157.013 50.8121C156.609 49.8404 156.436 48.4687 156.436 46.6968C156.436 45.2679 156.609 44.2963 156.956 43.6675C157.302 43.0388 157.822 42.8102 158.514 42.9817C159.149 43.096 159.611 43.4389 159.842 44.0105C160.131 44.582 160.246 45.7252 160.246 47.497C160.246 49.0403 160.246 49.7833 160.246 51.3265C164.46 51.8409 166.538 52.1267 170.694 52.6983V50.9264C170.694 50.0119 170.694 49.1546 170.636 48.4115C170.579 47.1541 170.463 46.011 170.232 44.925C170.175 44.6964 169.713 43.096 169.713 43.0388C165.326 30.5787 147.431 28.9211 146.219 40.5239C145.93 42.2958 145.757 44.582 145.757 47.2684C145.757 50.412 146.046 53.0412 146.681 55.0989C147.316 57.1565 148.066 58.7569 148.99 59.8428C149.913 60.986 151.818 62.815 154.647 65.0441C157.475 67.2732 159.265 68.7021 159.957 69.5595C160.65 70.4168 160.996 72.3601 160.996 75.3894C160.996 76.7612 160.823 77.8472 160.419 78.5902C160.073 79.3904 159.496 79.8476 158.745 80.0191C157.995 80.1906 157.475 80.0191 157.187 79.5047C156.898 78.9903 156.725 77.7328 156.725 75.7324C156.725 73.1032 156.725 71.7886 156.725 69.2165C152.511 69.5595 150.375 69.7309 146.103 70.0167C146.103 71.5599 146.103 72.3601 146.103 73.9034C146.103 78.3616 146.45 81.7338 147.142 84.0201C147.489 85.2204 148.066 86.2492 148.874 87.1065C148.99 87.278 149.798 87.9639 150.086 88.1353C156.09 92.4792 166.711 87.9639 170.29 80.2477C170.406 80.0191 170.983 78.4759 171.098 77.79C171.156 77.5042 171.502 75.3894 171.502 75.3894C171.56 74.875 171.618 74.3606 171.618 73.8462C171.618 73.8462 171.676 72.6459 171.676 72.303C171.676 68.0162 171.041 64.9869 169.771 62.9865C168.385 60.9288 165.268 58.3568 160.246 54.3558Z" fill="#FF0037"/>
</svg>
