<svg width="61" height="61" viewBox="0 0 61 61" fill="none" xmlns="http://www.w3.org/2000/svg">
<g clip-path="url(#clip0_2048_53)">
<path d="M60.0706 30.0182C60.0706 13.4364 46.6342 0 30.0524 0C13.4364 0 0 13.4364 0 30.0182C0 46.6 13.4364 60.0364 30.0182 60.0364C46.6342 60.0706 60.0706 46.6342 60.0706 30.0182ZM45.0957 27.0437C43.1811 27.0437 41.3007 26.6676 39.557 25.9155C38.4288 25.4368 37.3689 24.8214 36.4116 24.0693L36.4458 36.5825C36.4458 39.3861 35.3175 42.0528 33.3004 44.0358C31.6593 45.6427 29.5737 46.7026 27.3172 47.0103C26.7702 47.0787 26.2574 47.1128 25.7103 47.1128C23.2829 47.1128 20.9922 46.3265 19.1118 44.8905C18.7699 44.617 18.428 44.3093 18.0861 44.0016C15.898 41.8477 14.7698 38.9074 14.9749 35.8304C15.1117 33.4713 16.069 31.249 17.6417 29.5054C19.7272 27.1805 22.5991 25.8813 25.7103 25.8813C26.2574 25.8813 26.8044 25.9155 27.3172 25.9839V27.4882V31.6593C26.8044 31.4883 26.2916 31.3858 25.7103 31.3858C22.8726 31.3858 20.582 33.7106 20.6161 36.5142C20.6503 38.3262 21.6418 39.8989 23.0778 40.7878C23.7616 41.1981 24.5479 41.4374 25.4026 41.5058C26.0522 41.54 26.7018 41.4374 27.2831 41.2665C29.3002 40.5827 30.7704 38.7023 30.7704 36.4458V28.0694V12.8894H36.3774C36.3774 13.4364 36.4458 13.9834 36.5484 14.4963C36.9586 16.616 38.1553 18.4622 39.8305 19.7272C41.2665 20.8213 43.0785 21.4709 45.0615 21.4709V22.9752V27.0437H45.0957Z" fill="#FF0037"/>
</g>
<defs>
<clipPath id="clip0_2048_53">
<rect width="60.0706" height="60.0706" fill="white"/>
</clipPath>
</defs>
</svg>
