<svg width="1466" height="178" viewBox="0 0 1466 178" fill="none" xmlns="http://www.w3.org/2000/svg">
<path d="M709.934 0C741.825 6.625e-05 769.088 18.0605 780.088 43.5732C786.258 41.2603 793.036 39.9814 800.149 39.9814C823.823 39.9816 843.785 54.1413 849.952 73.4746C856.878 70.4119 864.681 68.6875 872.937 68.6875C881.112 68.6875 888.845 70.3783 895.72 73.3857C905.259 45.5995 931.617 25.6289 962.64 25.6289C988.594 25.629 1011.28 39.607 1023.59 60.4453C1029.34 58.4859 1035.57 57.4102 1042.09 57.4102C1044.72 57.4102 1047.31 57.5859 1049.84 57.9238C1057.69 27.0248 1086.59 4.10165 1121.03 4.10156C1150.22 4.10156 1175.42 20.5696 1187.21 44.4033C1199.41 37.0713 1214.01 32.8057 1229.7 32.8057C1257.69 32.8057 1282.21 46.3839 1295.8 66.7256C1303.05 62.1268 1311.68 59.461 1320.94 59.4609C1333.51 59.4609 1344.93 64.3845 1353.31 72.3867C1365.07 58.8238 1382.48 50.2334 1401.93 50.2334C1437.31 50.2336 1466 78.6905 1466 113.794C1466 148.898 1437.31 177.355 1401.93 177.355C1377.8 177.355 1356.79 164.13 1345.86 144.591C1338.65 149.109 1330.1 151.727 1320.94 151.727C1310.83 151.726 1301.48 148.547 1293.84 143.146C1279.92 161.932 1256.39 174.28 1229.7 174.28C1199.17 174.28 1172.76 158.124 1160.17 134.656C1148.84 141.571 1135.42 145.576 1121.03 145.576C1106.22 145.576 1092.44 141.339 1080.92 134.054C1071.43 143.632 1057.55 149.676 1042.09 149.676C1032.43 149.676 1023.38 147.314 1015.64 143.207C1002.68 157.862 983.742 167.103 962.64 167.104C942.62 167.104 924.544 158.785 911.676 145.419C902.192 154.946 888.352 160.953 872.937 160.953C849.262 160.953 829.299 146.793 823.132 127.459C816.207 130.521 808.405 132.247 800.149 132.247C785.349 132.247 772.001 126.712 762.565 117.84C748.984 129.926 730.413 137.373 709.934 137.373C689.582 137.373 671.116 130.018 657.558 118.065C649.347 125.598 638.402 130.197 626.382 130.197C622.589 130.197 618.904 129.736 615.378 128.873C601.732 147.614 578.693 159.928 552.569 159.928C532.81 159.928 514.816 152.882 501.316 141.341C489.698 149.135 475.115 153.775 459.278 153.775C433.573 153.775 411.166 141.551 399.391 123.452C391.583 137.849 376.34 147.625 358.812 147.625C346.504 147.625 335.322 142.805 327.05 134.949C318.072 140.39 307.54 143.523 296.275 143.523C278.152 143.523 261.923 135.415 251.017 122.628C238.397 141.996 216.549 154.802 191.708 154.802C180.791 154.802 170.451 152.328 161.219 147.911C151.778 157.832 138.388 164.028 123.534 164.028C96.6994 164.028 74.6322 143.814 72.0205 117.926C65.8006 120.546 58.9572 121.996 51.7715 121.996C23.179 121.996 3.43615e-05 99.0467 0 70.7373C0 42.4279 23.179 19.4785 51.7715 19.4785C78.6058 19.4786 100.671 39.6925 103.283 65.5801C109.503 62.9601 116.348 61.5107 123.534 61.5107C123.903 61.5107 124.271 61.5148 124.639 61.5225C134.051 33.508 160.523 13.3271 191.708 13.3271C216.548 13.3272 238.396 26.1316 251.016 45.499C261.922 32.7118 278.152 24.6036 296.275 24.6035C319.136 24.6035 338.983 37.5045 348.934 56.4229C352.116 55.7286 355.421 55.3594 358.812 55.3594C373.552 55.3594 386.678 62.273 395.123 73.0342C405.012 50.7068 430.007 34.8555 459.278 34.8555C472.259 34.8555 484.399 37.973 494.753 43.3896C508.668 28.1324 529.407 18.4531 552.569 18.4531C574.755 18.4532 594.716 27.3334 608.588 41.4893C614.064 39.1981 620.075 37.9316 626.382 37.9316C631.587 37.9317 636.59 38.794 641.257 40.3828C653.087 16.5675 679.388 0 709.934 0Z" fill="url(#paint0_linear_2018_2262)"/>
<defs>
<linearGradient id="paint0_linear_2018_2262" x1="53.9569" y1="45.9427" x2="991.889" y2="734.552" gradientUnits="userSpaceOnUse">
<stop stop-color="#00A553"/>
<stop offset="1" stop-color="#047840"/>
</linearGradient>
</defs>
</svg>
