<svg width="213" height="116" viewBox="0 0 213 116" fill="none" xmlns="http://www.w3.org/2000/svg">
<path d="M195.131 53.879L195.131 40C196.776 39.1594 197.876 39.3023 198.201 38.6411C200.346 38.4524 202.984 42.1048 203.829 44.5611C204.132 49.2921 198.203 52.6386 195.131 53.879Z" fill="url(#paint0_linear_236_688)"/>
<path d="M195 53.5L194.944 40C196.588 39.1594 197.583 38.4517 197.908 37.7905C200.053 37.6018 202.691 41.2542 203.536 43.7105C203.839 48.4415 198.072 52.2596 195 53.5Z" fill="url(#paint1_linear_236_688)"/>
<g filter="url(#filter0_f_236_688)">
<path d="M158.128 30.7668C185.178 30.2183 196.546 35.1625 198.849 37.7031C196.274 36.4461 166.96 38.4417 137.51 48.3405C108.06 58.2392 24.5032 97.7133 19.9844 94.2692C15.4655 90.8252 14.0314 82.5083 14.1224 77.2385C14.2133 71.9687 15.8046 74.5166 24.3405 73.7214C32.8763 72.9263 124.316 31.4524 158.128 30.7668Z" fill="#0D251A" fill-opacity="0.78"/>
</g>
<path d="M140.893 22.8896C186.179 11.6831 203.095 22.829 205.892 29.8028C205.922 32.8877 205.54 40.4004 203.77 45.7717C203.355 39.7239 189.784 27.9663 156.467 35.6245C123.15 43.2826 102.515 51.8138 61.5765 66.3812C28.8255 78.035 10.6408 82.8022 5.6423 83.729C5.66441 83.5627 6.41375 79.6063 9.23423 65.1115C51.7849 55.2275 84.2857 36.8978 140.893 22.8896Z" fill="url(#paint2_linear_236_688)"/>
<path d="M140.6 22.0381C185.886 10.8316 202.802 21.9775 205.599 28.9512C205.629 32.0362 205.247 39.5488 203.476 44.9201C203.062 38.8724 189.491 27.1148 156.174 34.7729C122.857 42.431 102.222 50.9623 61.2833 65.5296C28.5323 77.1835 10.3476 81.9506 5.34909 82.8774C5.3712 82.7111 6.12054 78.7547 8.94102 64.26C51.4917 54.3759 83.9925 36.0462 140.6 22.0381Z" fill="url(#paint3_linear_236_688)"/>
<path d="M35.7609 68.5737L35.7897 67.3109C36.1353 67.3653 36.4844 67.3752 36.8371 67.3404C37.1935 67.297 37.5256 67.2203 37.8335 67.1102C38.145 66.9915 38.4106 66.8481 38.6304 66.6802C38.8563 66.5098 39.0159 66.3266 39.1093 66.1306C39.2089 65.9322 39.2162 65.7279 39.1312 65.5178C39.0313 65.2705 38.8556 65.1294 38.6041 65.0944C38.3502 65.0533 38.0532 65.1014 37.7133 65.2389L36.128 65.8798L35.6707 64.7487L37.1448 64.1528C37.4477 64.0303 37.6575 63.8736 37.7744 63.6825C37.8975 63.4889 37.9153 63.284 37.8279 63.0676C37.7529 62.8822 37.6312 62.7589 37.4626 62.6976C37.2915 62.6301 37.0865 62.6123 36.8477 62.6441C36.6151 62.6735 36.3671 62.7449 36.1039 62.8586C35.8406 62.9722 35.583 63.1266 35.3312 63.3219C35.0794 63.5172 34.8524 63.7384 34.6503 63.9855L33.7275 63.0103C34.0603 62.624 34.4423 62.2971 34.8734 62.0293C35.3081 61.7529 35.7506 61.5488 36.2007 61.4172C36.6545 61.2769 37.0901 61.2159 37.5073 61.2341C37.9221 61.2462 38.2858 61.3365 38.5984 61.505C38.911 61.6734 39.1372 61.9307 39.2771 62.2768C39.4021 62.5859 39.4329 62.8934 39.3697 63.1994C39.3064 63.5054 39.1558 63.782 38.9178 64.0293C38.6859 64.274 38.3846 64.4713 38.0137 64.6212L37.9159 64.2725C38.3485 64.0976 38.7524 64.0206 39.1276 64.0415C39.5065 64.0537 39.8349 64.1546 40.1129 64.3443C40.3946 64.5252 40.6029 64.7826 40.7379 65.1163C40.8628 65.4254 40.8918 65.7372 40.8249 66.0519C40.7616 66.3579 40.6216 66.6518 40.4047 66.9337C40.1879 67.2155 39.9133 67.4703 39.5812 67.698C39.249 67.9258 38.8733 68.1172 38.4542 68.2723C38.0413 68.4248 37.6066 68.5323 37.15 68.5946C36.6909 68.6508 36.2279 68.6438 35.7609 68.5737ZM46.6992 64.856L44.4888 59.2242L44.9684 59.4335L42.5481 60.3834L42.0659 59.1547L47.7162 56.9369L48.1985 58.1657L45.7782 59.1156L45.9782 58.6397L48.1886 64.2714L46.6992 64.856ZM51.1116 58.6505L54.2567 57.4399L54.7093 58.6158L51.5643 59.8264L51.1116 58.6505ZM52.2582 61.2951L55.8139 59.9265L56.2809 61.1397L51.2227 63.0867L48.7081 56.554L53.6449 54.6536L54.1119 55.8669L50.6776 57.1888L52.2582 61.2951ZM57.5039 60.6747L55.0298 54.1265L60.998 51.8715L63.4721 58.4197L61.966 58.9888L59.8277 53.3293L60.3046 53.5446L56.6563 54.923L56.8716 54.4461L59.01 60.1056L57.5039 60.6747ZM65.1556 57.9084C65.043 57.95 64.9207 57.9846 64.7887 58.0121C64.663 58.0372 64.5224 58.0607 64.367 58.0826L63.9858 56.763C64.0826 56.7556 64.1779 56.7346 64.2717 56.6999C64.5281 56.6052 64.69 56.428 64.7576 56.1685C64.8228 55.9027 64.8139 55.5613 64.7308 55.1442C64.6477 54.7272 64.5115 54.2338 64.3222 53.6641L63.4313 50.9656L68.4775 49.1002L70.9046 55.6659L69.4039 56.2207L67.3062 50.546L67.7815 50.7648L64.8832 51.8362L65.0575 51.3559L65.6427 53.112C65.862 53.763 66.0297 54.3513 66.1459 54.877C66.262 55.4027 66.3129 55.8672 66.2985 56.2705C66.2842 56.6739 66.1854 57.0124 66.0023 57.2862C65.8193 57.56 65.537 57.7674 65.1556 57.9084ZM75.7417 54.0513C75.2208 54.2379 74.7072 54.3262 74.2009 54.3164C73.7008 54.3043 73.2326 54.203 72.796 54.0123C72.3658 53.8195 71.9855 53.5485 71.6551 53.1995C71.331 52.8482 71.0812 52.4278 70.9059 51.9382C70.7305 51.4487 70.6565 50.9653 70.6839 50.4882C70.7175 50.0088 70.8424 49.5568 71.0586 49.1324C71.2748 48.7079 71.5722 48.3323 71.9509 48.0055C72.3295 47.6787 72.7761 47.4231 73.2908 47.2387C73.8117 47.0521 74.319 46.966 74.8128 46.9803C75.3128 46.9924 75.778 47.0949 76.2082 47.2878C76.6447 47.4784 77.0282 47.7482 77.3586 48.0972C77.6867 48.44 77.9396 48.8593 78.1172 49.3551C78.2926 49.8446 78.3645 50.3323 78.3332 50.818C78.2995 51.2974 78.1746 51.7493 77.9584 52.1737C77.7462 52.5897 77.4508 52.961 77.0722 53.2879C76.6999 53.6124 76.2564 53.8669 75.7417 54.0513ZM75.2669 52.7555C75.5619 52.6498 75.8138 52.5029 76.0226 52.3148C76.2377 52.1245 76.4056 51.9014 76.5265 51.6457C76.6473 51.39 76.7119 51.1155 76.7201 50.8222C76.7346 50.5266 76.6857 50.222 76.5733 49.9081C76.4609 49.5943 76.3052 49.3279 76.1063 49.1088C75.9138 48.8874 75.6896 48.7163 75.4339 48.5955C75.1844 48.4724 74.9162 48.4056 74.6292 48.3951C74.3421 48.3846 74.0511 48.4322 73.7562 48.5379C73.4612 48.6435 73.2062 48.7916 72.9911 48.9819C72.7823 49.17 72.6175 49.3919 72.4966 49.6476C72.3758 49.9034 72.3081 50.179 72.2936 50.4745C72.2853 50.7678 72.3374 51.0714 72.4498 51.3852C72.56 51.6927 72.7125 51.9603 72.9073 52.1879C73.1062 52.407 73.3304 52.5781 73.5798 52.7012C73.8355 52.8221 74.1069 52.8877 74.3939 52.8982C74.681 52.9087 74.972 52.8611 75.2669 52.7555ZM80.4748 52.2361L78.1696 45.6266L79.4349 45.1853L83.8754 48.8684L83.205 49.1022L84.3448 43.4729L85.6101 43.0316L87.9247 49.6379L86.4895 50.1385L84.9422 45.7322L85.216 45.6367L84.2912 50.1214L83.6114 50.3585L80.0511 47.438L80.3721 47.3261L81.91 51.7356L80.4748 52.2361ZM96.4221 46.004L94.8531 41.2987L92.5764 42.0579L92.8706 43.035C92.9887 43.4524 93.0899 43.8509 93.1743 44.2303C93.265 44.6077 93.3261 44.9598 93.3578 45.2865C93.3873 45.607 93.38 45.8905 93.3357 46.1372C93.2978 46.3817 93.2114 46.5757 93.0765 46.7191L91.3657 47.0576C91.5955 46.988 91.7557 46.8467 91.8464 46.6338C91.9433 46.4188 91.9865 46.1479 91.9759 45.8211C91.9632 45.488 91.9084 45.1127 91.8114 44.6953C91.7207 44.2758 91.6057 43.8257 91.4665 43.3451L90.8497 41.2422L95.9534 39.5404L97.94 45.4979L96.4221 46.004ZM92.0238 49.7581L91.157 47.1272L98.6798 44.6187L99.5561 47.2465L98.1331 47.721L97.6744 46.3454L92.9881 47.9081L93.4467 49.2836L92.0238 49.7581ZM100.235 45.6161C100.12 45.6531 99.9969 45.6826 99.8639 45.7047C99.7372 45.7247 99.5958 45.7425 99.4396 45.7581L99.1125 44.424C99.2095 44.4206 99.3055 44.4034 99.4007 44.3726C99.6607 44.2884 99.8297 44.118 99.9078 43.8614C99.9838 43.5985 99.9887 43.257 99.9227 42.8369C99.8566 42.4168 99.7406 41.9183 99.5747 41.3413L98.7944 38.6088L103.912 36.9504L106.07 43.6095L104.548 44.1027L102.683 38.3473L103.149 38.5852L100.21 39.5378L100.403 39.065L100.917 40.8435C101.109 41.5028 101.253 42.0975 101.348 42.6275C101.442 43.1575 101.474 43.6236 101.443 44.0261C101.413 44.4285 101.3 44.7628 101.106 45.0289C100.912 45.295 100.621 45.4907 100.235 45.6161ZM111.545 41.89L110.886 39.7805L111.372 39.9954L109.539 40.5677C108.96 40.7486 108.431 40.8091 107.951 40.7494C107.472 40.6896 107.064 40.5132 106.728 40.22C106.392 39.9268 106.145 39.5289 105.988 39.0262C105.825 38.5043 105.804 38.0221 105.924 37.5795C106.049 37.1285 106.296 36.7369 106.668 36.4044C107.039 36.072 107.517 35.8144 108.102 35.6316L110.985 34.7313L113.072 41.4131L111.545 41.89ZM107.316 43.2106L108.229 40.296L109.794 39.8072L108.948 42.7009L107.316 43.2106ZM110.731 39.2842L109.726 36.0674L110.233 36.349L108.534 36.8796C108.095 37.0168 107.79 37.2239 107.618 37.5011C107.452 37.7763 107.432 38.1143 107.557 38.5152C107.678 38.9034 107.883 39.1677 108.172 39.3081C108.46 39.4486 108.82 39.4512 109.253 39.3161L110.99 38.7736L110.731 39.2842ZM120.104 32.0176L121.659 31.5631L123.623 38.2821L122.068 38.7365L120.104 32.0176ZM119.015 39.6286L117.46 40.083L115.497 33.3641L117.052 32.9096L119.015 39.6286ZM121.378 35.9481L118.095 36.9075L117.711 35.5925L120.993 34.6331L121.378 35.9481ZM124.548 38.013L125.711 30.438L127.254 30.0159L132.12 35.9424L130.48 36.3908L126.381 31.105L126.998 30.9361L126.149 37.5752L124.548 38.013ZM125.657 36.1547L125.747 34.8548L129.22 33.9052L129.969 34.9756L125.657 36.1547ZM136.157 35.0162C135.635 35.1522 135.126 35.1951 134.63 35.1449C134.14 35.0866 133.689 34.9421 133.278 34.7116C132.866 34.4812 132.512 34.1773 132.214 33.8002C131.922 33.4214 131.71 32.9772 131.578 32.4675C131.445 31.9578 131.414 31.4665 131.483 30.9937C131.56 30.5192 131.721 30.0811 131.968 29.6793C132.221 29.2758 132.548 28.9323 132.95 28.6487C133.35 28.3587 133.814 28.1448 134.343 28.0071C134.93 27.8543 135.486 27.8198 136.011 27.9037C136.54 27.9795 137.018 28.1721 137.443 28.4817L136.678 29.6727C136.377 29.4686 136.068 29.339 135.75 29.2839C135.431 29.2223 135.104 29.2351 134.768 29.3224C134.452 29.4047 134.175 29.5319 133.938 29.704C133.7 29.876 133.51 30.084 133.366 30.328C133.223 30.5719 133.131 30.8404 133.09 31.1335C133.056 31.4248 133.081 31.7318 133.165 32.0544C133.249 32.377 133.377 32.6571 133.549 32.8948C133.727 33.1308 133.938 33.3203 134.182 33.4635C134.426 33.6067 134.694 33.6955 134.985 33.7299C135.277 33.7642 135.581 33.7403 135.897 33.658C136.232 33.5707 136.525 33.4256 136.775 33.2227C137.024 33.0133 137.229 32.7429 137.391 32.4115L138.639 33.0786C138.419 33.5561 138.097 33.9602 137.673 34.2909C137.256 34.62 136.751 34.8617 136.157 35.0162ZM141.353 33.5949L139.961 27.7073L140.406 27.9822L137.876 28.5806L137.572 27.296L143.479 25.8991L143.783 27.1836L141.253 27.782L141.518 27.3391L142.91 33.2267L141.353 33.5949ZM146.085 32.4986L144.647 25.6479L147.612 25.0254C148.225 24.8967 148.775 24.8869 149.261 24.996C149.746 25.0987 150.148 25.3106 150.468 25.6318C150.787 25.953 151.001 26.3713 151.109 26.8868C151.216 27.3957 151.188 27.8614 151.024 28.284C150.861 28.7066 150.579 29.0655 150.177 29.3609C149.775 29.6498 149.267 29.8586 148.654 29.9873L146.569 30.4249L147.124 29.5625L147.67 32.1658L146.085 32.4986ZM147.161 29.7387L146.298 29.133L148.294 28.714C148.784 28.6112 149.127 28.4302 149.325 28.1707C149.522 27.9113 149.582 27.5956 149.504 27.2237C149.425 26.8453 149.242 26.577 148.957 26.4189C148.672 26.2608 148.284 26.2331 147.795 26.3358L145.799 26.7549L146.345 25.8534L147.161 29.7387ZM156.495 30.5981C155.949 30.6913 155.428 30.6891 154.931 30.5914C154.441 30.4926 153.997 30.3115 153.601 30.0479C153.21 29.7832 152.883 29.4503 152.618 29.0491C152.36 28.6469 152.187 28.1895 152.1 27.6769C152.012 27.1643 152.023 26.6755 152.133 26.2103C152.249 25.744 152.451 25.3207 152.738 24.9403C153.024 24.5599 153.382 24.2416 153.812 23.9856C154.242 23.7295 154.726 23.5554 155.265 23.4633C155.81 23.3701 156.325 23.3734 156.809 23.4733C157.299 23.5721 157.739 23.7538 158.129 24.0186C158.526 24.2821 158.857 24.6145 159.122 25.0156C159.385 25.4102 159.561 25.867 159.65 26.3862C159.738 26.8987 159.724 27.3914 159.609 27.8643C159.492 28.3306 159.291 28.7539 159.004 29.1343C158.723 29.5071 158.367 29.8214 157.938 30.0775C157.514 30.3324 157.033 30.506 156.495 30.5981ZM156.252 29.2395C156.561 29.1867 156.835 29.0858 157.073 28.9369C157.318 28.7868 157.522 28.5963 157.685 28.3655C157.849 28.1347 157.96 27.8755 158.019 27.5881C158.085 27.2996 158.09 26.9911 158.033 26.6625C157.977 26.3339 157.87 26.0445 157.713 25.7942C157.561 25.5427 157.37 25.3353 157.14 25.1718C156.915 25.0073 156.663 24.8949 156.382 24.8347C156.101 24.7745 155.806 24.7708 155.497 24.8236C155.188 24.8764 154.912 24.9778 154.667 25.1279C154.428 25.2768 154.228 25.4667 154.064 25.6976C153.901 25.9284 153.786 26.1881 153.72 26.4766C153.661 26.764 153.66 27.072 153.716 27.4006C153.771 27.7225 153.875 28.0126 154.027 28.2706C154.185 28.5209 154.376 28.7284 154.6 28.8929C154.831 29.0564 155.087 29.1682 155.368 29.2284C155.649 29.2886 155.943 29.2923 156.252 29.2395ZM161.478 29.6926L160.833 22.7223L162.437 22.5741L162.69 25.3124L164.492 25.1459L164.621 26.54L162.818 26.7065L163.081 29.5444L161.478 29.6926ZM167.642 29.2434C167.111 29.2925 166.612 29.2482 166.144 29.1107C165.682 28.9726 165.271 28.7595 164.91 28.4716C164.548 28.177 164.254 27.8192 164.027 27.3982C163.807 26.97 163.673 26.497 163.625 25.9792C163.577 25.4548 163.622 24.9652 163.76 24.5105C163.906 24.0552 164.13 23.6529 164.432 23.3036C164.734 22.9476 165.099 22.6595 165.527 22.4391C165.962 22.2182 166.445 22.0832 166.976 22.0341C167.501 21.9856 167.997 22.0302 168.465 22.1677C168.933 22.3052 169.344 22.5216 169.7 22.8168C170.061 23.1048 170.355 23.4626 170.582 23.8902C170.809 24.3111 170.946 24.7805 170.994 25.2983C171.041 25.8161 170.993 26.306 170.848 26.7679C170.703 27.2232 170.479 27.6288 170.177 27.9848C169.881 28.3335 169.516 28.6183 169.081 28.8393C168.646 29.0602 168.167 29.1949 167.642 29.2434ZM167.515 27.8692C167.807 27.8423 168.071 27.7643 168.307 27.6354C168.543 27.5065 168.745 27.3372 168.913 27.1275C169.081 26.9112 169.205 26.662 169.286 26.38C169.367 26.098 169.392 25.7878 169.361 25.4492C169.329 25.1106 169.248 24.8102 169.117 24.5478C168.985 24.2855 168.818 24.0666 168.614 23.8913C168.41 23.7093 168.18 23.5766 167.924 23.493C167.669 23.4095 167.395 23.3813 167.103 23.4083C166.818 23.4346 166.554 23.5126 166.311 23.6421C166.076 23.771 165.874 23.9436 165.706 24.16C165.538 24.3697 165.414 24.6155 165.333 24.8975C165.252 25.1795 165.227 25.4897 165.258 25.8283C165.289 26.1669 165.371 26.4673 165.502 26.7297C165.633 26.992 165.801 27.2142 166.005 27.3962C166.209 27.5715 166.439 27.7009 166.694 27.7845C166.956 27.8674 167.23 27.8956 167.515 27.8692Z" fill="url(#paint4_linear_236_688)"/>
<defs>
<filter id="filter0_f_236_688" x="12.3173" y="28.9235" width="188.333" height="67.359" filterUnits="userSpaceOnUse" color-interpolation-filters="sRGB">
<feFlood flood-opacity="0" result="BackgroundImageFix"/>
<feBlend mode="normal" in="SourceGraphic" in2="BackgroundImageFix" result="shape"/>
<feGaussianBlur stdDeviation="0.900537" result="effect1_foregroundBlur_236_688"/>
</filter>
<linearGradient id="paint0_linear_236_688" x1="203.323" y1="43.0894" x2="191.558" y2="49.0219" gradientUnits="userSpaceOnUse">
<stop stop-color="#0B3F31"/>
<stop offset="1" stop-color="#123125"/>
</linearGradient>
<linearGradient id="paint1_linear_236_688" x1="203.03" y1="42.2389" x2="191.265" y2="48.1713" gradientUnits="userSpaceOnUse">
<stop stop-color="#0D512D"/>
<stop offset="1" stop-color="#123622"/>
</linearGradient>
<linearGradient id="paint2_linear_236_688" x1="203.254" y1="22.1392" x2="7.62066" y2="89.4767" gradientUnits="userSpaceOnUse">
<stop stop-color="#105646"/>
<stop offset="0.134615" stop-color="#0E6655"/>
<stop offset="0.298077" stop-color="#0E7871"/>
<stop offset="0.428981" stop-color="#0B6556"/>
<stop offset="0.615596" stop-color="#0F4835"/>
<stop offset="0.8125" stop-color="#0C3F2E"/>
</linearGradient>
<linearGradient id="paint3_linear_236_688" x1="202.961" y1="21.2877" x2="7.32745" y2="88.6251" gradientUnits="userSpaceOnUse">
<stop stop-color="#00A85A"/>
<stop offset="0.134615" stop-color="#0AE29E"/>
<stop offset="0.298077" stop-color="#00ED9E"/>
<stop offset="0.428981" stop-color="#00B07E"/>
<stop offset="0.615596" stop-color="#00633F"/>
<stop offset="0.8125" stop-color="#006423"/>
</linearGradient>
<linearGradient id="paint4_linear_236_688" x1="182" y1="27" x2="35.7914" y2="52.8568" gradientUnits="userSpaceOnUse">
<stop stop-color="#E4FEFB"/>
<stop offset="0.321709" stop-color="#71FFA2"/>
<stop offset="1" stop-color="#3EFD72"/>
</linearGradient>
</defs>
</svg>
