<svg width="460" height="113" viewBox="0 0 460 113" fill="none" xmlns="http://www.w3.org/2000/svg">
<path d="M40 112.781V86.5C35.94 85.9231 23.7 84.1538 22.54 83C17.9 84.1538 15 93.7308 15 99.5C17.784 109.654 32.6533 112.396 40 112.781Z" fill="url(#paint0_linear_215_601)"/>
<path d="M40 111.5V83C35.94 82.4231 23.7 82.1538 22.54 81C17.9 82.1538 15 91.7308 15 97.5C17.784 107.654 32.6533 111.115 40 111.5Z" fill="url(#paint1_linear_215_601)"/>
<g filter="url(#filter0_f_215_601)">
<path d="M101 37.4987C43.8 55.8987 23.5 74.4987 20.5 81.4987C25 76.9974 88 60 157 59.5C226 59 430 81.4987 437 71C444 60.5013 441 41.9995 437 30.9987C433 19.9979 431.5 26.4987 413 30.9987C394.5 35.4987 172.5 14.4987 101 37.4987Z" fill="#0D251A" fill-opacity="0.78"/>
</g>
<path d="M131.5 8.5C28.3 17.7 0.833333 53.3333 0 70C2.16667 76.5 8.4 92 16 102C12.5 89 32.5 54.5 108 46.5C183.5 38.5 233 41.5 329.5 42.5C406.7 43.3 448.333 40.1667 459.5 38.5C459.333 38.1667 454.9 30.4 438.5 2C342 12 260.5 -3 131.5 8.5Z" fill="url(#paint2_linear_215_601)"/>
<path d="M131.5 6.5C28.3 15.7 0.833333 51.3333 0 68C2.16667 74.5 8.4 90 16 100C12.5 87 32.5 52.5 108 44.5C183.5 36.5 233 39.5 329.5 40.5C406.7 41.3 448.333 38.1667 459.5 36.5C459.333 36.1667 454.9 28.4 438.5 0C342 10 260.5 -5 131.5 6.5Z" fill="url(#paint3_linear_215_601)"/>
<path d="M74.2011 39.5515L74.6865 36.8153C75.4197 37.0494 76.1756 37.1877 76.9541 37.2303C77.7435 37.2552 78.4914 37.1996 79.1976 37.0633C79.9148 36.9094 80.5404 36.6866 81.0744 36.395C81.6227 36.1001 82.0311 35.7552 82.2998 35.3604C82.5827 34.9623 82.6669 34.5205 82.5526 34.0351C82.418 33.4641 82.0832 33.0985 81.5482 32.9382C81.0098 32.7637 80.3481 32.769 79.5629 32.954L75.9012 33.8168L75.2856 31.2043L78.6904 30.4021C79.3899 30.2372 79.8987 29.9667 80.2169 29.5903C80.5493 29.2106 80.6567 28.771 80.539 28.2713C80.4381 27.843 80.2146 27.5341 79.8685 27.3444C79.5191 27.1404 79.0794 27.033 78.5495 27.0223C78.0338 27.0082 77.4708 27.0806 76.8603 27.2395C76.2498 27.3984 75.6381 27.648 75.0251 27.9883C74.4122 28.3287 73.8446 28.7336 73.3224 29.2032L71.6424 26.7738C72.4954 26.0454 73.4354 25.4623 74.4623 25.0244C75.5002 24.5689 76.5306 24.2734 77.5534 24.1379C78.5872 23.9847 79.5546 23.9978 80.4558 24.1773C81.3536 24.3424 82.1142 24.6605 82.7375 25.1314C83.3607 25.6023 83.7666 26.2375 83.9549 27.037C84.1231 27.7508 84.0872 28.4298 83.8472 29.074C83.6073 29.7182 83.1871 30.2692 82.5868 30.7271C82.0007 31.1816 81.2794 31.5098 80.4229 31.7116L80.3269 30.9206C81.3262 30.6851 82.2303 30.6529 83.0391 30.824C83.8588 30.9774 84.5391 31.3068 85.0801 31.8122C85.632 32.3 85.9988 32.9293 86.1804 33.7002C86.3486 34.414 86.3073 35.1018 86.0564 35.7636C85.8164 36.4078 85.4135 37 84.8476 37.5402C84.2817 38.0804 83.5995 38.5425 82.801 38.9265C82.0024 39.3106 81.1216 39.601 80.1584 39.7978C79.2095 39.9913 78.2282 40.0794 77.2145 40.062C76.1975 40.0304 75.193 39.8603 74.2011 39.5515ZM99.3526 35.7607L97.3753 22.5984L98.3012 23.2824L92.6447 24.1322L92.2133 21.2604L105.419 19.2766L105.85 22.1483L100.194 22.9981L100.856 22.0755L102.834 35.2378L99.3526 35.7607ZM112.257 24.7824L119.633 24.03L119.914 26.7877L112.538 27.5401L112.257 24.7824ZM113.163 31.0589L121.501 30.2082L121.792 33.0534L109.929 34.2636L108.366 18.9431L119.944 17.762L120.234 20.6072L112.18 21.4289L113.163 31.0589ZM124.659 32.8184L123.555 17.458L137.555 16.4512L138.659 31.8116L135.126 32.0656L134.172 18.7899L135.042 19.5434L126.484 20.1589L127.238 19.2886L128.192 32.5643L124.659 32.8184ZM142.527 31.8252C142.263 31.8379 141.984 31.8293 141.689 31.7994C141.408 31.7689 141.098 31.7251 140.757 31.668L140.832 28.6469C141.04 28.6957 141.254 28.7147 141.474 28.7042C142.075 28.6753 142.532 28.4111 142.845 27.9114C143.158 27.3971 143.366 26.675 143.468 25.745C143.57 24.815 143.612 23.6898 143.592 22.3692L143.512 16.1178L155.334 15.5496L156.074 30.9318L152.558 31.1008L151.919 17.8062L152.771 18.5801L145.981 18.9065L146.665 18.0146L146.728 22.0863C146.757 23.5973 146.719 24.9427 146.614 26.1224C146.509 27.3022 146.308 28.3103 146.01 29.1469C145.713 29.9835 145.281 30.6283 144.716 31.0813C144.15 31.5343 143.421 31.7823 142.527 31.8252ZM167.291 30.7864C166.074 30.8279 164.939 30.6685 163.885 30.3083C162.845 29.9475 161.932 29.421 161.145 28.7287C160.373 28.036 159.758 27.2131 159.3 26.2602C158.857 25.3067 158.616 24.2584 158.577 23.115C158.538 21.9717 158.707 20.9093 159.084 19.9279C159.476 18.9459 160.041 18.0828 160.779 17.3386C161.517 16.5944 162.392 16.0068 163.404 15.5761C164.417 15.1453 165.524 14.9094 166.726 14.8684C167.943 14.8269 169.064 14.9868 170.088 15.3481C171.128 15.7089 172.034 16.2356 172.806 16.9284C173.593 17.6206 174.215 18.4432 174.673 19.3962C175.131 20.3345 175.379 21.3826 175.419 22.5406C175.458 23.6839 175.281 24.7539 174.89 25.7505C174.498 26.7324 173.933 27.5955 173.195 28.3398C172.472 29.0688 171.603 29.6488 170.591 30.0795C169.593 30.5098 168.493 30.7454 167.291 30.7864ZM167.166 27.7529C167.855 27.7294 168.481 27.5907 169.045 27.3367C169.623 27.0821 170.124 26.7275 170.549 26.2727C170.974 25.818 171.293 25.2861 171.507 24.6772C171.736 24.0677 171.838 23.3965 171.813 22.6636C171.788 21.9307 171.64 21.268 171.371 20.6755C171.116 20.0825 170.761 19.5736 170.306 19.1489C169.866 18.7236 169.349 18.4038 168.755 18.1892C168.16 17.9747 167.519 17.8792 166.83 17.9027C166.141 17.9262 165.507 18.0652 164.929 18.3197C164.365 18.5737 163.871 18.9281 163.446 19.3829C163.021 19.8376 162.695 20.3697 162.466 20.9792C162.252 21.5882 162.157 22.2591 162.182 22.992C162.207 23.7103 162.347 24.3732 162.602 24.9809C162.872 25.5734 163.227 26.0822 163.667 26.5075C164.122 26.9322 164.646 27.2519 165.241 27.4664C165.835 27.6809 166.477 27.7764 167.166 27.7529ZM178.426 30.163L178.065 14.7672L181.012 14.6981L187.821 25.4096L186.259 25.4462L192.449 14.4303L195.396 14.3612L195.779 29.7565L192.436 29.8348L192.173 19.5641L192.811 19.5492L187.845 28.3139L186.261 28.351L180.78 19.831L181.528 19.8135L181.769 30.0846L178.426 30.163ZM216.017 27.851L215.856 16.9402L210.576 17.018L210.544 19.2627C210.514 20.2166 210.461 21.1195 210.386 21.9714C210.325 22.823 210.219 23.602 210.068 24.3083C209.917 24.9999 209.713 25.5897 209.456 26.0775C209.214 26.5651 208.904 26.9144 208.525 27.1254L204.713 26.6975C205.241 26.7044 205.671 26.5147 206.002 26.1284C206.349 25.742 206.619 25.2026 206.815 24.5103C207.009 23.8033 207.144 22.9799 207.218 22.0401C207.307 21.1 207.365 20.0797 207.393 18.9792L207.498 14.1591L219.333 13.9846L219.536 27.7991L216.017 27.851ZM204.296 32.7983L204.229 26.7047L221.673 26.4474L221.763 32.5408L218.463 32.5894L218.416 29.3998L207.549 29.56L207.596 32.7497L204.296 32.7983ZM224.271 29.5676C224.007 29.5699 223.728 29.5504 223.434 29.509C223.155 29.4675 222.847 29.4115 222.509 29.3412L222.702 26.3254C222.908 26.3822 223.121 26.4097 223.341 26.4077C223.942 26.4024 224.409 26.1562 224.742 25.6692C225.075 25.1676 225.311 24.4541 225.449 23.5289C225.588 22.6036 225.673 21.4808 225.705 20.1604L225.87 13.9107L237.705 13.8056L237.842 29.2049L234.322 29.2362L234.204 15.9268L235.025 16.7335L228.227 16.7939L228.946 15.9295L228.85 20.0005C228.819 21.5115 228.729 22.8544 228.578 24.0291C228.427 25.2038 228.186 26.2033 227.856 27.0276C227.526 27.8519 227.07 28.4793 226.487 28.9098C225.904 29.3404 225.165 29.5596 224.271 29.5676ZM250.466 29.1221L250.436 24.2602L251.321 25.0248L247.097 25.0508C245.762 25.0589 244.61 24.846 243.639 24.412C242.668 23.9779 241.924 23.3445 241.405 22.5116C240.887 21.6788 240.624 20.6831 240.617 19.5244C240.609 18.3218 240.875 17.2935 241.412 16.4395C241.964 15.5707 242.737 14.906 243.732 14.4452C244.726 13.9844 245.898 13.7499 247.247 13.7416L253.891 13.7008L253.986 29.1005L250.466 29.1221ZM240.72 29.182L244.514 23.6366L248.122 23.6144L244.482 29.1589L240.72 29.182ZM250.429 23.1163L250.384 15.7024L251.269 16.621L247.353 16.645C246.341 16.6512 245.565 16.8907 245.026 17.3633C244.501 17.8359 244.241 18.5342 244.247 19.4581C244.252 20.3528 244.513 21.0405 245.029 21.5214C245.546 22.0022 246.302 22.2396 247.3 22.2335L251.304 22.2089L250.429 23.1163ZM274.582 13.6241L278.146 13.6119L278.198 29.0118L274.634 29.024L274.582 13.6241ZM267.638 29.048L264.074 29.0602L264.022 13.6603L267.586 13.6481L267.638 29.048ZM274.877 22.7092L267.353 22.7349L267.342 19.7209L274.866 19.6952L274.877 22.7092ZM280.319 29.0053L287.194 13.6102L290.714 13.6127L297.589 29.0175L293.849 29.0149L288.226 15.4149L289.634 15.4159L283.971 29.0079L280.319 29.0053ZM283.753 25.7077L284.701 23.0024L292.621 23.008L293.587 25.7147L283.753 25.7077ZM306.698 29.288C305.51 29.2871 304.403 29.0957 303.376 28.7136C302.365 28.3169 301.485 27.7589 300.738 27.0397C299.99 26.3206 299.404 25.4768 298.979 24.5085C298.569 23.5402 298.365 22.4767 298.366 21.3181C298.366 20.1594 298.572 19.0962 298.984 18.1285C299.41 17.1608 299.997 16.3179 300.746 15.5998C301.509 14.8816 302.397 14.3323 303.409 13.9516C304.421 13.5564 305.529 13.3591 306.731 13.36C308.066 13.3609 309.268 13.5964 310.339 14.0665C311.424 14.522 312.333 15.1973 313.065 16.0925L310.776 18.2028C310.248 17.6011 309.662 17.1534 309.017 16.8596C308.372 16.5511 307.668 16.3967 306.905 16.3961C306.186 16.3956 305.526 16.5125 304.925 16.7467C304.323 16.9809 303.802 17.3179 303.362 17.7576C302.922 18.1973 302.577 18.7177 302.327 19.3189C302.092 19.92 301.974 20.5873 301.974 21.3206C301.973 22.054 302.09 22.7214 302.324 23.3229C302.573 23.9244 302.917 24.4453 303.357 24.8856C303.797 25.3259 304.317 25.6636 304.918 25.8987C305.52 26.1338 306.179 26.2516 306.898 26.2521C307.661 26.2526 308.365 26.1065 309.01 25.8136C309.656 25.5061 310.243 25.0445 310.771 24.4288L313.058 26.5425C312.324 27.4366 311.414 28.118 310.328 28.5865C309.257 29.0551 308.047 29.2889 306.698 29.288ZM318.551 29.0462L318.595 15.7363L319.407 16.553L313.687 16.5338L313.696 13.6298L327.05 13.6746L327.04 16.5786L321.321 16.5594L322.115 15.7481L322.071 29.058L318.551 29.0462ZM329.236 29.0834L329.298 13.6835L335.964 13.7103C337.343 13.7159 338.53 13.948 339.525 14.4066C340.521 14.8507 341.288 15.4917 341.828 16.3299C342.367 17.1681 342.634 18.1665 342.63 19.3252C342.625 20.4692 342.35 21.4581 341.804 22.2919C341.258 23.1257 340.485 23.7679 339.486 24.2186C338.487 24.6545 337.298 24.8698 335.919 24.8642L331.233 24.8454L332.824 23.2457L332.8 29.0977L329.236 29.0834ZM332.822 23.6417L331.245 21.9414L335.733 21.9594C336.833 21.9639 337.655 21.7325 338.2 21.2654C338.744 20.7982 339.018 20.1466 339.022 19.3107C339.025 18.46 338.757 17.7989 338.216 17.3274C337.675 16.8559 336.855 16.6179 335.755 16.6135L331.267 16.5954L332.857 14.9078L332.822 23.6417ZM352.525 29.4472C351.307 29.4415 350.179 29.2382 349.14 28.8373C348.115 28.4365 347.223 27.875 346.463 27.1528C345.719 26.4306 345.136 25.5846 344.715 24.6146C344.309 23.6447 344.109 22.5877 344.114 21.4437C344.12 20.2997 344.33 19.2447 344.745 18.2786C345.175 17.3126 345.773 16.4721 346.539 15.757C347.305 15.0419 348.202 14.4888 349.231 14.0976C350.259 13.7064 351.375 13.5136 352.577 13.5193C353.795 13.525 354.908 13.7282 355.919 14.1289C356.943 14.5297 357.828 15.0912 358.573 15.8134C359.332 16.5356 359.922 17.3817 360.343 18.3517C360.764 19.307 360.971 20.364 360.966 21.5226C360.961 22.6666 360.743 23.7289 360.313 24.7096C359.883 25.6756 359.285 26.5161 358.519 27.2312C357.768 27.9317 356.878 28.4776 355.85 28.8688C354.836 29.26 353.727 29.4528 352.525 29.4472ZM352.517 26.4111C353.206 26.4143 353.838 26.3 354.411 26.068C354.998 25.8361 355.513 25.5011 355.955 25.0632C356.397 24.6253 356.737 24.1062 356.975 23.506C357.227 22.9058 357.355 22.2391 357.358 21.5057C357.361 20.7724 357.24 20.1045 356.993 19.502C356.762 18.8996 356.427 18.3773 355.989 17.9353C355.565 17.4933 355.061 17.1536 354.476 16.9162C353.89 16.6788 353.253 16.5585 352.563 16.5552C351.874 16.552 351.235 16.6663 350.648 16.8983C350.074 17.1302 349.567 17.4652 349.125 17.9031C348.683 18.3411 348.336 18.8601 348.084 19.4603C347.846 20.0605 347.726 20.7273 347.722 21.4606C347.719 22.1793 347.833 22.8471 348.065 23.4642C348.311 24.0667 348.646 24.589 349.069 25.031C349.507 25.473 350.019 25.8128 350.605 26.0502C351.19 26.2876 351.828 26.4079 352.517 26.4111ZM363.675 29.2391L363.778 13.8395L367.32 13.863L367.279 19.9129L371.261 19.9393L371.241 23.0192L367.259 22.9928L367.217 29.2627L363.675 29.2391ZM377.269 29.5934C376.096 29.5856 375.012 29.3804 374.017 28.9778C373.037 28.5753 372.183 28.0196 371.454 27.3108C370.726 26.5872 370.159 25.7401 369.755 24.7694C369.366 23.7841 369.175 22.7195 369.182 21.5755C369.19 20.4169 369.395 19.3549 369.798 18.3896C370.215 17.4243 370.792 16.5921 371.53 15.893C372.268 15.1792 373.13 14.6276 374.115 14.2381C375.115 13.8488 376.202 13.658 377.375 13.6658C378.534 13.6735 379.61 13.8786 380.605 14.2812C381.6 14.6838 382.454 15.2469 383.168 15.9703C383.897 16.6791 384.463 17.5263 384.867 18.5116C385.271 19.4823 385.47 20.5397 385.462 21.6836C385.454 22.8276 385.242 23.8896 384.825 24.8695C384.408 25.8347 383.83 26.6743 383.092 27.388C382.369 28.0872 381.507 28.6315 380.507 29.0209C379.507 29.4103 378.428 29.6011 377.269 29.5934ZM377.29 26.5575C377.935 26.5618 378.53 26.4484 379.074 26.2173C379.618 25.9863 380.097 25.6594 380.51 25.2368C380.924 24.7996 381.25 24.2811 381.489 23.6813C381.727 23.0815 381.849 22.4077 381.854 21.6597C381.859 20.9117 381.746 20.2363 381.516 19.6334C381.285 19.0305 380.966 18.5151 380.558 18.087C380.15 17.6443 379.676 17.3038 379.135 17.0655C378.593 16.8273 378 16.706 377.355 16.7017C376.724 16.6975 376.13 16.8109 375.571 17.0419C375.026 17.2729 374.548 17.6071 374.134 18.0443C373.72 18.4669 373.394 18.9781 373.156 19.5779C372.917 20.1776 372.795 20.8515 372.79 21.5995C372.785 22.3475 372.898 23.0229 373.129 23.6258C373.36 24.2287 373.679 24.7515 374.086 25.1942C374.494 25.6222 374.969 25.9554 375.51 26.1937C376.066 26.432 376.659 26.5533 377.29 26.5575Z" fill="url(#paint4_linear_215_601)"/>
<defs>
<filter id="filter0_f_215_601" x="16.5" y="20.9492" width="428.699" height="64.5498" filterUnits="userSpaceOnUse" color-interpolation-filters="sRGB">
<feFlood flood-opacity="0" result="BackgroundImageFix"/>
<feBlend mode="normal" in="SourceGraphic" in2="BackgroundImageFix" result="shape"/>
<feGaussianBlur stdDeviation="2" result="effect1_foregroundBlur_215_601"/>
</filter>
<linearGradient id="paint0_linear_215_601" x1="15" y1="96.0435" x2="43.9944" y2="99.9976" gradientUnits="userSpaceOnUse">
<stop stop-color="#0B3F31"/>
<stop offset="1" stop-color="#123125"/>
</linearGradient>
<linearGradient id="paint1_linear_215_601" x1="15" y1="94.0435" x2="43.9944" y2="97.9976" gradientUnits="userSpaceOnUse">
<stop stop-color="#0D512D"/>
<stop offset="1" stop-color="#123622"/>
</linearGradient>
<linearGradient id="paint2_linear_215_601" x1="0" y1="52" x2="459.5" y2="52" gradientUnits="userSpaceOnUse">
<stop stop-color="#105646"/>
<stop offset="0.134615" stop-color="#0E6655"/>
<stop offset="0.298077" stop-color="#0E7871"/>
<stop offset="0.428981" stop-color="#0B6556"/>
<stop offset="0.615596" stop-color="#0F4835"/>
<stop offset="0.8125" stop-color="#0C3F2E"/>
</linearGradient>
<linearGradient id="paint3_linear_215_601" x1="0" y1="50" x2="459.5" y2="50" gradientUnits="userSpaceOnUse">
<stop stop-color="#00A85A"/>
<stop offset="0.134615" stop-color="#0AE29E"/>
<stop offset="0.298077" stop-color="#00ED9E"/>
<stop offset="0.428981" stop-color="#00B07E"/>
<stop offset="0.615596" stop-color="#00633F"/>
<stop offset="0.8125" stop-color="#006423"/>
</linearGradient>
<linearGradient id="paint4_linear_215_601" x1="35.0374" y1="42.5325" x2="376.361" y2="-56.6627" gradientUnits="userSpaceOnUse">
<stop stop-color="#E4FEFB"/>
<stop offset="0.321709" stop-color="#71FFA2"/>
<stop offset="1" stop-color="#3EFD72"/>
</linearGradient>
</defs>
</svg>
