<svg width="30" height="32" viewBox="0 0 30 32" fill="none" xmlns="http://www.w3.org/2000/svg">
<g clip-path="url(#clip0_2021_449)">
<g filter="url(#filter0_df_2021_449)">
<path d="M17 16C17 17.1046 16.1046 18 15 18C13.8954 18 13 17.1046 13 16C13 14.8954 13.8954 14 15 14C16.1046 14 17 14.8954 17 16Z" fill="white" fill-opacity="0.38"/>
<path d="M15 5L16 14.16L22.78 8.22L16.5 15L26 16L16.5 17L22.78 23.78L16 17.84L15 27L14 17.84L7.22 23.78L13.16 17L4 16L13.5 15L7.22 8.22L14 14.16L15 5Z" fill="#FFF59E"/>
</g>
</g>
<defs>
<filter id="filter0_df_2021_449" x="0" y="3.6" width="30" height="31.4" filterUnits="userSpaceOnUse" color-interpolation-filters="sRGB">
<feFlood flood-opacity="0" result="BackgroundImageFix"/>
<feColorMatrix in="SourceAlpha" type="matrix" values="0 0 0 0 0 0 0 0 0 0 0 0 0 0 0 0 0 0 127 0" result="hardAlpha"/>
<feOffset dy="4"/>
<feGaussianBlur stdDeviation="2"/>
<feComposite in2="hardAlpha" operator="out"/>
<feColorMatrix type="matrix" values="0 0 0 0 0 0 0 0 0 0 0 0 0 0 0 0 0 0 0.25 0"/>
<feBlend mode="normal" in2="BackgroundImageFix" result="effect1_dropShadow_2021_449"/>
<feBlend mode="normal" in="SourceGraphic" in2="effect1_dropShadow_2021_449" result="shape"/>
<feGaussianBlur stdDeviation="0.7" result="effect2_foregroundBlur_2021_449"/>
</filter>
<clipPath id="clip0_2021_449">
<rect width="30" height="32" fill="white"/>
</clipPath>
</defs>
</svg>
