<svg width="269" height="234" viewBox="0 0 269 234" fill="none" xmlns="http://www.w3.org/2000/svg">
<path d="M156.665 76.2317C160.157 74.5969 164.303 76.1115 165.928 79.6105C168.871 85.948 164.228 92.5154 160.86 101.808C151.604 98.4251 143.616 97.7726 140.673 91.4347C139.047 87.9357 140.557 83.7734 144.042 82.142C147.197 80.6645 149.511 81.5102 152.561 83.9398C152.667 80.0327 153.509 77.7093 156.665 76.2317Z" fill="#FF7979"/>
<path d="M98.8372 55.3199C103.032 54.9265 106.746 58.0175 107.136 62.2203C107.845 69.8328 100.657 74.8792 93.7839 83.2032C85.4941 76.3016 77.5088 72.6784 76.8005 65.066C76.4094 60.863 79.4887 57.1349 83.674 56.7423C87.4647 56.3867 89.5374 58.1122 91.7872 61.7403C93.3281 57.7566 95.0466 55.6755 98.8372 55.3199Z" fill="#FF7979"/>
<path d="M219.293 90.8098C224.217 94.9449 224.87 102.296 220.76 107.229C213.316 116.165 200.166 113.77 183.822 115.233C182.366 98.8229 177.704 86.2605 185.148 77.3243C189.259 72.3904 196.58 71.7363 201.493 75.8622C205.943 79.599 206.307 83.702 204.811 90.0385C210.757 87.4388 214.843 87.0732 219.293 90.8098Z" fill="#FF7979"/>
<path d="M267.552 74.0293C269.884 77.5158 268.961 82.2348 265.496 84.5714C259.219 88.8041 251.424 84.9045 240.932 82.8357C242.993 72.3011 242.352 63.589 248.628 59.3564C252.094 57.0194 256.794 57.9468 259.121 61.4257C261.228 64.5765 260.713 67.2104 258.629 70.9022C262.821 70.3612 265.444 70.8786 267.552 74.0293Z" fill="#FF7979"/>
<path d="M38.8411 45.3448C42.9172 43.4365 47.7567 45.2044 49.6536 49.2888C53.0894 56.6865 47.6688 64.3522 43.7374 75.1992C32.9336 71.2511 23.6094 70.4885 20.1737 63.091C18.2768 59.0066 20.0386 54.148 24.1059 52.2437C27.7896 50.5191 30.4907 51.5062 34.0506 54.3422C34.1744 49.7815 35.1575 47.0694 38.8411 45.3448Z" fill="#FF7979" fill-opacity="0.3"/>
<path d="M252.095 131.267C256.171 129.358 261.011 131.126 262.908 135.211C266.344 142.608 260.923 150.274 256.992 161.121C246.188 157.173 236.864 156.41 233.428 149.013C231.531 144.928 233.293 140.07 237.36 138.166C241.044 136.441 243.745 137.428 247.305 140.264C247.429 135.703 248.412 132.991 252.095 131.267Z" fill="#FF7979" fill-opacity="0.3"/>
<path d="M223.887 26.0424C227.807 27.1938 230.053 31.3124 228.908 35.2401C226.836 42.3543 218.562 44.3213 209.404 49.3547C204.391 40.1594 198.486 34.0276 200.558 26.9135C201.703 22.9857 205.805 20.7317 209.717 21.8805C213.259 22.921 214.512 25.2199 215.248 29.297C218.055 26.2604 220.345 25.002 223.887 26.0424Z" fill="#FF7979" fill-opacity="0.3"/>
<path d="M92.9234 6.54815C95.8116 6.75786 97.9813 9.27541 97.7728 12.1695C97.3953 17.4113 91.9532 20.0164 86.3554 24.8792C81.5123 19.2582 76.5064 15.8945 76.884 10.6528C77.0925 7.75864 79.6004 5.5808 82.4823 5.79006C85.0925 5.97957 86.3034 7.38491 87.4199 10.1004C88.9135 7.57445 90.3133 6.35861 92.9234 6.54815Z" fill="#FF7979" fill-opacity="0.2"/>
<path d="M246.375 191.652C248.874 193.12 249.715 196.34 248.255 198.845C245.613 203.381 239.584 203.307 232.424 205.191C230.548 198.001 227.535 192.764 230.178 188.228C231.637 185.723 234.845 184.88 237.339 186.345C239.598 187.672 240.067 189.469 239.875 192.401C242.325 190.796 244.116 190.325 246.375 191.652Z" fill="#FF7979" fill-opacity="0.2"/>
<path d="M12.4957 171.235C14.9817 169.744 18.197 170.558 19.6791 173.049C22.3633 177.561 19.3926 182.828 17.5836 190.035C10.4056 188.218 4.3834 188.344 1.69921 183.832C0.217141 181.341 1.02805 178.113 3.50864 176.625C5.75531 175.278 7.54995 175.732 10.0155 177.314C9.79664 174.385 10.249 172.583 12.4957 171.235Z" fill="#FF7979" fill-opacity="0.2"/>
<path d="M41.8156 123.055C44.44 121.827 47.556 122.965 48.7774 125.594C50.9894 130.358 47.4994 135.294 44.9681 142.278C38.0119 139.736 32.0084 139.244 29.7963 134.482C28.5749 131.851 29.7092 128.723 32.328 127.498C34.6998 126.387 36.439 127.022 38.7311 128.848C38.8108 125.912 39.4438 124.165 41.8156 123.055Z" fill="#FF7979"/>
<path d="M47.5724 205.612C49.0434 203.108 52.2541 202.276 54.7431 203.749C59.2522 206.419 59.1572 212.472 61.0073 219.668C53.8397 221.525 48.6131 224.532 44.1046 221.862C41.615 220.388 40.7869 217.164 42.2548 214.666C43.5839 212.402 45.3762 211.938 48.2951 212.141C46.7057 209.675 46.2428 207.875 47.5724 205.612Z" fill="#FF7979"/>
</svg>
