<svg width="457" height="409" viewBox="0 0 457 409" fill="none" xmlns="http://www.w3.org/2000/svg">
<g opacity="0.76">
<path d="M229.543 0C237.891 67.9184 239.679 136.135 239.679 204.649C239.083 272.865 236.698 341.082 227.755 409C219.11 340.784 217.619 272.567 217.619 204.351C218.215 136.135 220.302 67.9184 229.543 0Z" fill="black"/>
<path d="M0 203.457C76.0176 196.01 152.333 194.52 228.649 194.818C304.965 195.414 381.28 197.499 457 205.542C380.982 212.989 304.667 214.479 228.351 214.181C152.035 213.585 76.0176 211.5 0 203.457Z" fill="black"/>
<path d="M68.2656 350.019C115.367 296.101 167.238 246.354 220.599 197.5C274.258 148.945 329.11 101.878 388.732 58.9824C341.631 112.9 289.462 162.647 236.101 211.501C182.441 259.759 127.589 307.123 68.2656 350.019Z" fill="black"/>
<path d="M78.7012 49.748C135.044 96.2185 186.318 146.562 236.699 197.798C286.483 249.631 334.776 302.357 378.002 358.956C321.659 312.783 270.087 262.142 220.005 210.905C170.519 159.073 121.927 106.347 78.7012 49.748Z" fill="black"/>
<path d="M167.537 338.997C180.058 291.632 198.54 246.354 218.812 201.372C239.381 156.391 261.441 112.304 289.761 70.0039C277.241 117.07 258.46 162.647 238.487 207.628C217.619 252.609 195.559 296.697 167.537 338.997Z" fill="black"/>
<path d="M88.8359 252.907C131.764 229.374 177.374 211.501 223.879 195.117C270.682 179.031 318.081 164.732 368.163 156.094C325.236 179.627 279.625 197.5 233.12 213.884C186.317 229.672 138.918 244.269 88.8359 252.907Z" fill="black"/>
<path d="M94.7969 141.496C141.898 154.603 187.21 173.966 231.927 194.52C276.643 215.67 320.465 238.608 362.498 267.205C315.397 254.098 270.085 235.033 225.368 214.181C180.652 193.031 136.532 170.391 94.7969 141.496Z" fill="black"/>
<path d="M286.482 340.485C259.95 299.377 239.082 254.991 219.407 209.713C200.328 164.136 182.442 117.963 170.518 68.5137C197.049 109.622 217.917 154.007 237.592 199.286C256.671 244.863 274.259 291.036 286.482 340.485Z" fill="black"/>
</g>
</svg>
