<svg width="24" height="22" viewBox="0 0 24 22" fill="none" xmlns="http://www.w3.org/2000/svg">
<path d="M22.1742 3.23277H4.36397L3.90058 1.49499C3.66344 0.613817 2.86479 0 1.95165 0H0.785023C0.351625 0 0 0.351922 0 0.785686C0 1.21945 0.351625 1.57137 0.785023 1.57137H1.95438C2.15609 1.57137 2.33599 1.70778 2.38778 1.9042L6.13299 15.9156C6.4083 16.9414 7.34051 17.6588 8.40084 17.6588H20.9667C21.4001 17.6588 21.7517 17.3069 21.7517 16.8731C21.7517 16.4394 21.4001 16.0875 20.9667 16.0875H8.40084C8.04921 16.0875 7.73575 15.8474 7.6458 15.5091L7.35959 14.4397H19.1567C20.5769 14.4397 21.8226 13.4794 22.1905 12.1072L23.9378 5.53254C24.0849 4.97874 23.9677 4.40311 23.6216 3.95025C23.2727 3.49467 22.7439 3.23277 22.1742 3.23277ZM4.78374 4.80414H7.96199L8.40084 8.05328H5.65598L4.78374 4.80414ZM6.94527 12.8683L6.07575 9.6192H8.61617L9.05503 12.8683H6.94527ZM10.6387 12.8683L10.1999 9.6192H12.8657V12.8683H10.6387ZM12.8629 8.05328H9.98451L9.54566 4.80414H12.8629V8.05328ZM16.6627 12.8683H14.4303V9.62192H17.0988L16.6627 12.8683ZM17.3114 8.05328H14.4303V4.80414H17.7475L17.3114 8.05328ZM20.675 11.7007C20.4924 12.3882 19.8654 12.8683 19.1567 12.8683H18.2436L18.6797 9.6192H21.2283L20.675 11.7007ZM22.4222 5.12878L21.6454 8.05328H18.8923L19.3285 4.80414H22.1742C22.2832 4.80414 22.3486 4.86689 22.3786 4.90508C22.4059 4.94055 22.4522 5.01966 22.4222 5.12878Z" fill="black"/>
<path d="M10.7558 18.1117C9.72815 18.1117 8.89406 18.9465 8.89406 19.975C8.89406 21.0034 9.72815 21.8382 10.7558 21.8382C11.7834 21.8382 12.6175 21.0034 12.6175 19.975C12.6175 18.9492 11.7834 18.1117 10.7558 18.1117Z" fill="black"/>
<path d="M17.7556 18.1117C16.728 18.1117 15.8939 18.9465 15.8939 19.975C15.8939 21.0034 16.728 21.8382 17.7556 21.8382C18.7832 21.8382 19.6173 21.0034 19.6173 19.975C19.6173 18.9492 18.7832 18.1117 17.7556 18.1117Z" fill="black"/>
</svg>
