<svg width="61" height="61" viewBox="0 0 61 61" fill="none" xmlns="http://www.w3.org/2000/svg">
<g clip-path="url(#clip0_2048_51)">
<path d="M45.2127 4.11388C40.6994 1.43786 35.627 0.0399406 30.0353 0C24.4436 0.0798811 19.3712 1.43786 14.8579 4.11388C10.3845 6.74995 6.67007 10.4644 4.07394 14.9378C1.43786 19.491 0.0798811 24.6034 0 30.235C0.159762 37.9435 2.59614 44.4938 7.26918 49.9656C11.9822 55.4375 17.9732 58.7925 25.6418 60.0706V38.4628H18.8519V29.9954H25.6418V23.5649C25.6818 19.7706 26.7602 16.8549 28.8371 14.8579C30.914 12.8609 33.7498 11.8224 37.3444 11.8224C38.942 11.8224 40.4997 11.9422 42.0973 12.102C43.4953 12.2617 44.2142 12.3816 44.2941 12.3816V19.8105H38.942C37.1447 19.8505 35.9066 20.3297 35.1876 21.2484C34.4687 22.167 34.1092 23.2853 34.1492 24.4436V29.9954H43.0559L41.7379 38.4628H35.8267V60.0706C42.0574 58.7925 48.0884 55.3975 52.7615 49.9656C57.4745 44.4938 59.8709 37.9435 60.0306 30.235C59.9508 24.6034 58.5928 19.5309 55.9168 14.9777C53.3606 10.5044 49.6461 6.74995 45.2127 4.11388Z" fill="#FF0037"/>
</g>
<defs>
<clipPath id="clip0_2048_51">
<rect width="60.0706" height="60.0706" fill="white"/>
</clipPath>
</defs>
</svg>
