<svg width="54" height="54" viewBox="0 0 54 54" fill="none" xmlns="http://www.w3.org/2000/svg">
<g clip-path="url(#clip0_2003_40)">
<path d="M41.2514 16.4061C40.1634 17.0567 38.9719 17.5149 37.7291 17.7604C36.8958 16.8671 35.7917 16.275 34.5884 16.0755C33.3851 15.8759 32.1498 16.08 31.0741 16.6567C29.9984 17.2334 29.1426 18.15 28.6395 19.2644C28.1363 20.3789 28.0139 21.6287 28.2913 22.8201C26.0892 22.7136 23.9345 22.1422 21.9677 21.143C20.0009 20.1438 18.2664 18.7393 16.8778 17.0216C16.1707 18.2445 15.9548 19.6921 16.274 21.069C16.5932 22.4459 17.4236 23.6485 18.596 24.433C17.7142 24.4102 16.8509 24.1736 16.08 23.7435C16.0635 25.0381 16.4984 26.2981 17.3097 27.3052C18.1209 28.3123 19.2574 29.0038 20.5227 29.2594C19.7067 29.4842 18.8501 29.5174 18.019 29.3574C18.3736 30.4615 19.0637 31.4268 19.9924 32.1178C20.9211 32.8088 22.0421 33.1913 23.1982 33.2113C22.0504 34.1179 20.735 34.7879 19.3281 35.183C17.9212 35.578 16.4503 35.69 15 35.513C17.4316 37.0771 20.2453 37.9403 23.1331 38.0077C26.0209 38.075 28.8714 37.3438 31.3728 35.8947C33.8742 34.4456 35.9302 32.3342 37.3153 29.7914C38.7005 27.2487 39.3616 24.3728 39.2264 21.4784C40.311 20.6963 41.2464 19.7245 41.9877 18.6098C40.9775 19.0584 39.9062 19.353 38.8091 19.4839C39.9675 18.788 40.8352 17.6946 41.2514 16.4061Z" fill="white"/>
</g>
<defs>
<clipPath id="clip0_2003_40">
<rect width="27" height="22" fill="white" transform="translate(15 16)"/>
</clipPath>
</defs>
</svg>
