<svg width="54" height="54" viewBox="0 0 54 54" fill="none" xmlns="http://www.w3.org/2000/svg">
<g clip-path="url(#clip0_2003_37)">
<path d="M30.432 23.7047C30.8109 23.6701 31.1773 23.556 31.5056 23.3706C31.8339 23.1852 32.1162 22.9329 32.3326 22.6314V23.5783H33.9839V15.0303H32.3326V21.5204C32.098 21.8358 31.7538 22.0598 31.3625 22.1517C31.0087 22.1517 30.9301 21.9242 30.9301 21.5833V15.0303H29.2786V22.177C29.2307 22.3519 29.2237 22.5343 29.2583 22.7121C29.2929 22.8899 29.3682 23.0584 29.4786 23.2047C29.589 23.351 29.7319 23.4715 29.8968 23.558C30.0617 23.6445 30.2445 23.6948 30.432 23.7047ZM23.0922 21.4446C23.0512 21.7574 23.0857 22.0751 23.193 22.373C23.3003 22.671 23.4776 22.941 23.7109 23.1622C23.9443 23.3833 24.2275 23.5495 24.5384 23.648C24.8494 23.7465 25.1798 23.7746 25.5038 23.73C25.8198 23.7462 26.1357 23.6979 26.4312 23.5888C26.7266 23.4797 26.9949 23.3118 27.2187 23.0962C27.4424 22.8807 27.6166 22.6225 27.7299 22.3379C27.8431 22.0533 27.8931 21.749 27.8763 21.4446V17.2523C27.8851 16.9498 27.8298 16.6493 27.7137 16.3682C27.5976 16.087 27.4232 15.8312 27.2011 15.6173C26.979 15.4033 26.7139 15.2359 26.4221 15.124C26.1302 15.0122 25.8178 14.9589 25.5038 14.9674C25.1848 14.9463 24.8649 14.9901 24.565 15.0969C24.2651 15.2038 23.9922 15.371 23.7642 15.587C23.5363 15.8031 23.3585 16.0632 23.2426 16.3503C23.1268 16.6374 23.0755 16.9446 23.0922 17.2523V21.4446ZM24.7831 17.4039C24.764 17.304 24.768 17.2013 24.7947 17.1031C24.8215 17.0048 24.8704 16.9136 24.9379 16.8355C25.0055 16.7574 25.0901 16.6943 25.1856 16.6512C25.2811 16.6081 25.3852 16.5858 25.4907 16.5858C25.5962 16.5858 25.7005 16.6081 25.796 16.6512C25.8915 16.6943 25.976 16.7574 26.0435 16.8355C26.111 16.9136 26.1599 17.0048 26.1867 17.1031C26.2135 17.2013 26.2176 17.304 26.1985 17.4039V21.3687C26.2144 21.4667 26.2084 21.5666 26.1811 21.6622C26.1538 21.7578 26.1056 21.8472 26.04 21.9236C25.9743 22 25.8926 22.0618 25.8002 22.1055C25.7077 22.1492 25.6067 22.1737 25.5038 22.177C25.3996 22.1746 25.2971 22.1509 25.2029 22.1079C25.1087 22.065 25.0248 22.0035 24.9568 21.9273C24.8889 21.8511 24.8383 21.7621 24.8083 21.6659C24.7784 21.5697 24.7698 21.4684 24.7831 21.3687V17.4039ZM19.1602 23.5783H21.0083V18.8811L23.1708 12.0002H21.2835L20.0907 16.6209L18.8194 12.0002H16.9451L19.1602 18.8811V23.5783ZM36.199 25.5228H16.7617C15.7607 25.5232 14.8007 25.9063 14.0928 26.5882C13.385 27.27 12.9873 28.1947 12.9869 29.159V38.3636C12.9857 38.8421 13.0825 39.3158 13.2716 39.7582C13.4607 40.2006 13.7384 40.603 14.089 40.9419C14.4396 41.2808 14.8561 41.5498 15.3147 41.7335C15.7733 41.9172 16.265 42.0123 16.7617 42.0128H36.199C36.6967 42.0136 37.1896 41.9197 37.6495 41.7366C38.1095 41.5535 38.5275 41.2846 38.8794 40.9456C39.2313 40.6066 39.5103 40.2044 39.7004 39.7613C39.8904 39.3182 39.9878 38.8431 39.9869 38.3636V29.159C39.9864 28.6806 39.8879 28.2069 39.6972 27.7651C39.5065 27.3233 39.2272 26.9222 38.8754 26.5845C38.5236 26.2467 38.1062 25.9794 37.647 25.7972C37.1877 25.615 36.6957 25.5217 36.199 25.5228ZM19.3568 39.2853H17.5874V29.8532H15.7525V28.2503H21.1787V29.8532H19.3568V39.2853ZM25.648 39.2853H24.0752V38.3889C23.8242 38.6889 23.5174 38.9413 23.1708 39.1337C22.332 39.6008 21.1656 39.6009 21.1656 37.9469V31.1411H22.7383V37.3791C22.7383 37.7073 22.8171 37.9345 23.1578 37.9345C23.5299 37.8391 23.8548 37.6197 24.0752 37.3156V31.1411H25.648V39.2853ZM31.6902 37.5936C31.7394 37.804 31.7401 38.0223 31.692 38.2329C31.6439 38.4436 31.5481 38.6414 31.4118 38.8125C31.2755 38.9835 31.1018 39.1232 30.903 39.2224C30.7043 39.3217 30.4853 39.3778 30.2616 39.3864C29.9694 39.3916 29.6802 39.3273 29.4197 39.1996C29.1592 39.0719 28.9352 38.8846 28.7674 38.654V39.2853H27.1816V28.2503H28.7674V31.7977C28.9262 31.5801 29.1332 31.3992 29.3735 31.2682C29.6138 31.1371 29.8814 31.0597 30.1568 31.0407C31.3102 31.0407 31.6902 31.9745 31.6902 33.0856V37.5936ZM37.4966 35.4093H34.4951V36.937C34.4951 37.5557 34.5475 38.0733 35.1767 38.0733C35.8451 38.0733 35.8845 37.6441 35.8845 36.937V36.3686H37.4966V36.9876C37.4966 38.5532 36.8019 39.4999 35.1373 39.4999C34.8093 39.5027 34.4847 39.4371 34.1858 39.3069C33.8869 39.1768 33.621 38.9856 33.4065 38.7465C33.192 38.5074 33.0342 38.2259 32.9438 37.9222C32.8534 37.6185 32.8326 37.2998 32.883 36.9876V33.3384C32.8587 33.027 32.9024 32.7139 33.0115 32.4198C33.1205 32.1257 33.2923 31.8574 33.5159 31.6313C33.7395 31.4052 34.0099 31.2264 34.3095 31.1072C34.6091 30.9881 34.9314 30.9312 35.2554 30.9395C35.5766 30.9214 35.8978 30.9728 36.1955 31.0906C36.4932 31.2084 36.7596 31.3892 36.9748 31.6196C37.1901 31.85 37.3488 32.1241 37.4392 32.4217C37.5295 32.7192 37.5491 33.0326 37.4966 33.3384V35.4093ZM35.1898 32.3662C34.6131 32.3662 34.4951 32.7576 34.4951 33.3131V34.1467H35.8845V33.3131C35.8845 32.7702 35.7534 32.3662 35.1898 32.3662ZM29.082 32.4167C28.965 32.4807 28.8589 32.5615 28.7674 32.6565V37.7323C28.8728 37.8474 28.9968 37.9455 29.1345 38.0227C29.2593 38.0944 29.4053 38.125 29.5498 38.109C29.6943 38.0931 29.8292 38.0317 29.9339 37.9345C30.0423 37.7689 30.0928 37.5743 30.0781 37.3791V33.1744C30.0885 32.9523 30.0291 32.7323 29.9077 32.5431C29.8069 32.4327 29.6692 32.3596 29.5184 32.3366C29.3677 32.3135 29.2133 32.3418 29.082 32.4167Z" fill="white"/>
</g>
<defs>
<clipPath id="clip0_2003_37">
<rect width="27" height="30" fill="white" transform="translate(13 12)"/>
</clipPath>
</defs>
</svg>
